<svg width="80" height="80" viewBox="0 0 80 80" fill="none" xmlns="http://www.w3.org/2000/svg">
<g clip-path="url(#clip0_288_41)">
<path d="M74.2283 59.8875C74.7846 58.9231 75.1289 57.8375 75.1289 56.8606V22.9875C75.1289 22.0138 74.7852 20.9269 74.2283 19.9625L39.6533 39.925L74.2283 59.8875Z" fill="#00599C"/>
<path d="M42.7252 79.1163L72.0583 62.1825C72.9033 61.6944 73.6721 60.8519 74.2289 59.8875L39.6539 39.925L5.0752 59.8875C5.63145 60.8519 6.40082 61.6938 7.24582 62.1825L36.5789 79.1163C38.2683 80.0925 41.0352 80.0925 42.7239 79.1163H42.7252Z" fill="#004482"/>
<path d="M74.2286 19.9632C73.6717 18.9969 72.9029 18.1544 72.0579 17.6688L42.7242 0.732534C41.0348 -0.244341 38.2686 -0.244341 36.5792 0.732534L7.24605 17.6688C5.55605 18.6425 4.1748 21.0375 4.1748 22.9875V56.86C4.1748 57.8363 4.51855 58.9225 5.07543 59.8869L39.6529 39.925L74.2286 19.9632Z" fill="#659AD2"/>
<path d="M39.6529 16.2719C26.611 16.2719 16.001 26.8825 16.001 39.9244C16.001 52.9662 26.611 63.5769 39.6529 63.5769C48.0685 63.5769 55.9179 59.0475 60.1341 51.7581L49.8997 45.8344C47.7872 49.4844 43.8622 51.75 39.6529 51.75C33.1322 51.75 27.8266 46.445 27.8266 39.9237C27.8266 33.4025 33.1329 28.0975 39.6529 28.0975C43.8591 28.0975 47.7885 30.3656 49.8966 34.0131L60.1341 28.09C55.9154 20.8 48.0685 16.2719 39.6529 16.2719ZM58.0497 35.9812V38.6106H55.4203V41.2375H58.0497V43.8669H60.6766V41.2375H63.3035V38.6106H60.6766V35.9812H58.0497ZM67.9035 35.9812V38.6106H65.276V41.2375H67.9035V43.8669H70.5329V41.2375H73.1597V38.6106H70.5329V35.9812H67.9035Z" fill="white"/>
</g>
<defs>
<clipPath id="clip0_288_41">
<rect width="80" height="80" fill="white"/>
</clipPath>
</defs>
</svg>
