<svg viewBox="0 0 24 24" xmlns="http://www.w3.org/2000/svg">
  <path fill="#00C4CC" d="M4.927 2C3.311 2 2 3.311 2 4.927v14.146C2 20.689 3.311 22 4.927 22h14.146c1.616 0 2.927-1.311 2.927-2.927V4.927C22 3.311 20.689 2 19.073 2H4.927zm5.236 6.302c.483 0 .887.168 1.214.505.326.337.49.756.49 1.256 0 .5-.164.918-.49 1.256-.327.337-.731.505-1.214.505-.482 0-.887-.168-1.213-.505-.327-.338-.49-.756-.49-1.256 0-.5.163-.919.49-1.256.326-.337.73-.505 1.213-.505zm3.977 0c.484 0 .888.168 1.214.505.327.337.49.756.49 1.256 0 .5-.163.918-.49 1.256-.326.337-.73.505-1.214.505-.482 0-.886-.168-1.213-.505-.327-.338-.49-.756-.49-1.256 0-.5.163-.919.49-1.256.327-.337.731-.505 1.213-.505zm-5.977 4.65h7.674c.16 0 .29.13.29.29v.146c0 1.774-1.72 3.214-3.841 3.214-2.122 0-3.842-1.44-3.842-3.214v-.145c0-.16.13-.29.29-.29h-.571z"/>
</svg>
