<svg width="80" height="113" viewBox="0 0 80 113" fill="none" xmlns="http://www.w3.org/2000/svg">
<g clip-path="url(#clip0_288_26)">
<path d="M39.9509 112.715L7.39398 103.661L0.138672 22.1511H79.8605L72.5977 103.649L39.9509 112.715Z" fill="#264DE4"/>
<path d="M66.3803 98.4593L72.5866 28.8156H40V105.785L66.3803 98.4593Z" fill="#2965F1"/>
<path d="M16.7711 59.0468L17.6655 69.0436H39.9996V59.0468H16.7711ZM14.9736 38.8129L15.8808 48.8098H39.9996V38.8129H14.9736ZM39.9996 85.0098L39.9558 85.0214L28.8408 82.0152L28.1302 74.0423H18.1114L19.5096 89.7389L39.9536 95.4234L39.9996 95.4108V85.0098Z" fill="#EBEBEB"/>
<path d="M18.9014 0H30.9889V5.0634H23.9564V10.1268H30.9895V15.1899H18.9014V0ZM33.4067 0H45.4945V4.40293H38.4617V5.28345H45.4945V15.4103H33.407V10.7866H40.4398V9.90613H33.4064L33.4067 0ZM47.9123 0H60.0001V4.40293H52.9673V5.28345H60.0001V15.4103H47.9123V10.7866H54.9451V9.90613H47.9126L47.9123 0Z" fill="black"/>
<path d="M63.1642 59.0468L64.9658 38.8129H39.9652V48.8098H54.0283L53.1202 59.0468H39.9652V69.0437H52.2548L51.0961 82.0089L39.9648 85.0183V95.4187L60.4252 89.7389L60.5752 88.0499L62.9208 61.7312L63.1642 59.0468Z" fill="white"/>
</g>
<defs>
<clipPath id="clip0_288_26">
<rect width="80" height="113" fill="white"/>
</clipPath>
</defs>
</svg>
