<svg width="219" height="92" viewBox="0 0 219 92" fill="none" xmlns="http://www.w3.org/2000/svg">
<g clip-path="url(#clip0_288_64)">
<path d="M130.873 31.7008C126.085 31.7008 122.519 34.0417 122.519 39.6758C122.519 43.9206 124.869 46.868 130.614 46.868C135.485 46.868 138.793 44.0101 138.793 39.4995C138.793 34.3884 135.833 31.7008 130.873 31.7008ZM121.3 71.4831C120.167 72.8674 119.037 74.3394 119.037 76.0746C119.037 79.5391 123.474 80.5818 129.568 80.5818C134.615 80.5818 141.492 80.2291 141.492 75.5559C141.492 72.778 138.184 72.6067 134.004 72.3461L121.3 71.4831ZM147.061 31.9623C148.625 33.9557 150.281 36.7301 150.281 40.716C150.281 50.3351 142.709 55.9675 131.745 55.9675C128.957 55.9675 126.434 55.6217 124.869 55.1889L121.996 59.7804L130.524 60.3C145.582 61.2558 154.455 61.6903 154.455 73.2116C154.455 83.1799 145.668 88.8098 130.524 88.8098C114.772 88.8098 108.767 84.8232 108.767 77.9777C108.767 74.0779 110.507 72.0019 113.554 69.1372C110.681 67.9284 109.725 65.763 109.725 63.4212C109.725 61.5131 110.681 59.7813 112.25 58.1329C113.816 56.4888 115.556 54.8405 117.645 52.9341C113.381 50.8538 110.159 46.3475 110.159 39.9331C110.159 29.969 116.775 23.1252 130.087 23.1252C133.831 23.1252 136.095 23.4677 138.096 23.9916H155.069V31.355L147.061 31.9623ZM170.38 16.2141C165.418 16.2141 162.547 13.3519 162.547 8.41033C162.547 3.47555 165.417 0.786255 170.38 0.786255C175.427 0.786255 178.3 3.47555 178.3 8.41033C178.3 13.3519 175.428 16.2141 170.38 16.2141ZM159.151 68.2938V61.4509L163.591 60.8461C164.81 60.6714 164.983 60.4125 164.983 59.11V33.6311C164.983 32.6804 164.723 32.0705 163.849 31.8133L159.151 30.1649L160.108 23.1474H178.125V59.11C178.125 60.4985 178.208 60.6714 179.518 60.8469L183.956 61.4517V68.2938H159.151ZM218.373 64.9341C214.629 66.7528 209.146 68.3994 204.184 68.3994C193.828 68.3994 189.913 64.2441 189.913 54.4461V31.7434C189.913 31.2238 189.913 30.8771 189.214 30.8771H183.123V23.1618C190.784 22.293 193.828 18.4801 194.785 9.03388H203.054V21.3431C203.054 21.948 203.054 22.2095 203.751 22.2095H216.021V30.8754H203.054V51.5864C203.054 56.6993 204.274 58.6909 208.971 58.6909C211.411 58.6909 213.932 58.0861 216.02 57.3058L218.373 64.9341Z" fill="#2F2707"/>
<path d="M89.4216 42.1922L49.6287 2.57001C49.0837 2.02718 48.4367 1.59657 47.7245 1.30279C47.0124 1.009 46.2492 0.857788 45.4783 0.857788C44.7075 0.857788 43.9443 1.009 43.2321 1.30279C42.52 1.59657 41.873 2.02718 41.328 2.57001L33.0651 10.7989L43.5471 21.2358C44.7793 20.819 46.104 20.754 47.3714 21.048C48.6387 21.342 49.7982 21.9833 50.7185 22.8995C51.6433 23.8219 52.2889 24.9847 52.5818 26.2551C52.8746 27.5255 52.8029 28.8523 52.3747 30.084L62.4752 40.1435C64.9193 39.3053 67.7398 39.8479 69.6911 41.7944C70.34 42.4399 70.8547 43.2065 71.2059 44.0502C71.5571 44.894 71.7378 45.7984 71.7378 46.7117C71.7378 47.625 71.5571 48.5294 71.2059 49.3732C70.8547 50.2169 70.34 50.9835 69.6911 51.629C68.5497 52.7666 67.0477 53.4752 65.4406 53.6342C63.8336 53.7931 62.2209 53.3926 60.8771 52.5008C59.5332 51.6089 58.5413 50.2809 58.0701 48.7428C57.599 47.2046 57.6777 45.5514 58.2928 44.0646L48.8724 34.684L48.8716 59.3706C49.5541 59.7076 50.1777 60.1517 50.7185 60.6859C51.3672 61.3317 51.8818 62.0984 52.2329 62.9423C52.584 63.7862 52.7647 64.6906 52.7647 65.6041C52.7647 66.5175 52.584 67.422 52.2329 68.2658C51.8818 69.1097 51.3672 69.8764 50.7185 70.5222C47.9896 73.2396 43.5668 73.2396 40.8421 70.5222C40.0281 69.7123 39.4277 68.7146 39.0943 67.6178C38.7609 66.5211 38.7048 65.3593 38.931 64.2358C39.1572 63.1123 39.6587 62.0618 40.3909 61.1778C41.1231 60.2938 42.0633 59.6037 43.1279 59.1688V34.2521C42.2719 33.9031 41.4947 33.3869 40.8421 32.7341C38.7753 30.6786 38.2783 27.6587 39.3374 25.1313L29.005 14.8409L1.72068 42.0082C1.17547 42.5511 0.742984 43.1956 0.447915 43.9049C0.152847 44.6142 0.000976563 45.3745 0.000976562 46.1422C0.000976563 46.91 0.152847 47.6702 0.447915 48.3796C0.742984 49.0889 1.17547 49.7334 1.72068 50.2763L41.5137 89.8993C42.0586 90.4421 42.7057 90.8727 43.4178 91.1665C44.1299 91.4603 44.8932 91.6115 45.664 91.6115C46.4348 91.6115 47.1981 91.4603 47.9102 91.1665C48.6223 90.8727 49.2693 90.4421 49.8143 89.8993L89.4216 50.4611C90.5224 49.3644 91.1407 47.8772 91.1407 46.3267C91.1407 44.7761 90.5224 43.289 89.4216 42.1922Z" fill="#DE4C36"/>
</g>
<defs>
<clipPath id="clip0_288_64">
<rect width="219" height="92" fill="white"/>
</clipPath>
</defs>
</svg>
