<svg width="80" height="113" viewBox="0 0 80 113" fill="none" xmlns="http://www.w3.org/2000/svg">
<g clip-path="url(#clip0_288_15)">
<path d="M79.8605 22.1511L72.5977 103.649L39.9509 112.715L7.39398 103.661L0.138672 22.1511H79.8605Z" fill="#E44D26"/>
<path d="M40 105.785L66.3803 98.4593L72.5866 28.8156H40V105.785Z" fill="#F16529"/>
<path d="M25.8808 48.8098H39.9996V38.8129H14.9736L15.2124 41.4948L17.6655 69.0436H39.9996V59.0468H26.793L25.8808 48.8098ZM28.1302 74.0423H18.1114L19.5096 89.7389L39.9536 95.4234L39.9996 95.4108V85.0098L39.9558 85.0214L28.8408 82.0152L28.1302 74.0423Z" fill="#EBEBEB"/>
<path d="M7.55664 0H12.6285V5.01927H17.2682V0H22.3404V15.1996H17.2685V10.1099H12.6288V15.1996H7.55695L7.55664 0ZM29.0098 5.04055H24.5454V0H38.5498V5.04055H34.0826V15.1996H29.0107V5.04055H29.0098ZM40.7723 0H46.0607L49.3138 5.34074L52.5638 0H57.8545V15.1996H52.8032V7.66584L49.3138 13.0701H49.2263L45.7348 7.66584V15.1996H40.7723V0ZM60.3785 0H65.452V10.1756H72.5844V15.1996H60.3782L60.3785 0Z" fill="black"/>
<path d="M39.9652 69.0437H52.2548L51.0961 82.0089L39.9648 85.0183V95.4187L60.4252 89.7389L60.5752 88.0499L62.9208 61.7312L63.1642 59.0468H39.9652V69.0437ZM39.9652 48.7854V48.8098H64.0723L64.2723 46.5629L64.7273 41.4948L64.9658 38.8129H39.9652V48.7854Z" fill="white"/>
</g>
<defs>
<clipPath id="clip0_288_15">
<rect width="80" height="113" fill="white"/>
</clipPath>
</defs>
</svg>
