<svg width="172" height="172" viewBox="0 0 172 172" fill="none" xmlns="http://www.w3.org/2000/svg">
<path d="M70.6555 91.1291C70.6555 91.1291 66.2427 93.697 73.8013 94.565C82.9576 95.6105 87.6378 95.46 97.7267 93.5532C97.7267 93.5532 100.386 95.2154 104.089 96.6559C81.466 106.348 52.8871 96.0942 70.6555 91.1291ZM67.8888 78.4777C67.8888 78.4777 62.9384 82.1448 70.5024 82.9268C80.2849 83.936 88.0074 84.0193 101.38 81.4447C101.38 81.4447 103.225 83.3205 106.132 84.3431C78.7839 92.3438 48.3224 84.9733 67.8888 78.4777Z" fill="#0074BD"/>
<path d="M91.1933 57.0167C96.7712 63.4371 89.7313 69.2098 89.7313 69.2098C89.7313 69.2098 103.885 61.9039 97.3853 52.7516C91.3129 44.2201 86.6595 39.9833 111.859 25.3687C111.859 25.3687 72.3015 35.2452 91.1933 57.0167Z" fill="#EA2D2E"/>
<path d="M121.115 100.487C121.115 100.487 124.383 103.181 117.516 105.264C104.46 109.219 63.1695 110.412 51.7006 105.421C47.5806 103.627 55.3112 101.139 57.7421 100.616C60.2777 100.066 61.7263 100.167 61.7263 100.167C57.1414 96.9381 32.0899 106.508 49.0023 109.254C95.1252 116.729 133.077 105.886 121.115 100.487ZM72.78 65.3694C72.78 65.3694 51.7785 70.3588 65.3437 72.1728C71.0734 72.9388 82.4872 72.7627 93.127 71.8705C101.82 71.1408 110.543 69.5807 110.543 69.5807C110.543 69.5807 107.481 70.8949 105.262 72.408C83.9318 78.0181 42.7337 75.4045 54.595 69.6694C64.6234 64.8171 72.78 65.3694 72.78 65.3694ZM110.456 86.426C132.137 75.1627 122.112 64.3374 115.115 65.7954C113.404 66.1528 112.636 66.4619 112.636 66.4619C112.636 66.4619 113.274 65.4621 114.487 65.0335C128.331 60.1691 138.974 79.3861 110.023 86.9971C110.023 86.9971 110.355 86.6961 110.456 86.426Z" fill="#0074BD"/>
<path d="M97.387 1.7644C97.387 1.7644 109.393 13.7762 85.9974 32.2433C67.2359 47.0609 81.7189 55.5077 85.9893 65.1625C75.0378 55.2806 67.0048 46.5812 72.3933 38.4864C80.3066 26.605 102.23 20.8416 97.387 1.7644Z" fill="#EA2D2E"/>
<path d="M74.9125 116.959C95.7191 118.289 127.68 116.218 128.437 106.373C128.437 106.373 126.983 110.104 111.238 113.066C93.4764 116.409 71.5666 116.021 58.5752 113.876C58.5752 113.876 61.2358 116.08 74.9125 116.959Z" fill="#0074BD"/>
<path d="M127.476 134.618H126.842V134.263H128.548V134.618H127.917V136.388H127.475L127.476 134.618ZM130.882 134.707H130.874L130.245 136.388H129.955L129.33 134.707H129.324V136.388H128.904V134.263H129.518L130.098 135.767L130.678 134.263H131.288V136.388H130.882V134.707ZM71.502 154.581C69.5401 156.282 67.4654 157.239 65.6016 157.239C62.949 157.239 61.5099 155.645 61.5099 153.093C61.5099 150.332 63.0498 148.31 69.2203 148.31H71.5006L71.502 154.581ZM76.9187 160.692V141.776C76.9187 136.94 74.1599 133.75 67.5164 133.75C63.6384 133.75 60.2387 134.71 57.4746 135.93L58.2701 139.28C60.447 138.48 63.2621 137.738 66.0249 137.738C69.8546 137.738 71.5006 139.28 71.5006 142.47V144.86H69.5871C60.2871 144.86 56.0905 148.468 56.0905 153.894C56.0905 158.569 58.856 161.226 64.063 161.226C67.4089 161.226 69.9096 159.844 72.2437 157.822L72.6684 160.694L76.9187 160.692ZM94.9948 160.692H88.2397L80.1087 134.235H86.0091L91.0562 150.493L92.1783 155.378C94.726 148.312 96.532 141.139 97.435 134.237H103.174C101.638 142.945 98.8702 152.509 94.9948 160.692ZM120.913 154.581C118.944 156.282 116.868 157.239 115.011 157.239C112.356 157.239 110.918 155.645 110.918 153.093C110.918 150.332 112.462 148.31 118.626 148.31H120.912L120.913 154.581ZM126.332 160.692V141.776C126.332 136.94 123.566 133.75 116.927 133.75C113.045 133.75 109.647 134.71 106.883 135.93L107.68 139.28C109.857 138.48 112.676 137.738 115.439 137.738C119.263 137.738 120.913 139.28 120.913 142.47V144.86H119C109.697 144.86 105.502 148.468 105.502 153.894C105.502 158.569 108.264 161.226 113.47 161.226C116.817 161.226 119.314 159.844 121.655 157.822L122.082 160.694L126.332 160.692ZM50.1511 165.189C48.6099 167.445 46.1132 169.231 43.3827 170.237L40.71 167.086C42.7887 166.019 44.5692 164.298 45.3983 162.693C46.1132 161.265 46.4101 159.428 46.4101 155.032V124.822H52.1668V154.617C52.1668 160.496 51.6991 162.873 50.1511 165.189Z" fill="#EA2D2E"/>
</svg>
