<svg width="130" height="130" viewBox="0 0 130 130" fill="none" xmlns="http://www.w3.org/2000/svg">
<g clip-path="url(#clip0_288_5)">
<path d="M99.5312 0H30.4688C13.6413 0 0 13.6413 0 30.4688V99.5312C0 116.359 13.6413 130 30.4688 130H99.5312C116.359 130 130 116.359 130 99.5312V30.4688C130 13.6413 116.359 0 99.5312 0Z" fill="#F0DB4F"/>
<path d="M34.1821 108.637L44.1302 102.617C46.0497 106.02 47.7956 108.899 51.9835 108.899C55.9978 108.899 58.5287 107.329 58.5287 101.221V59.6826H70.7457V101.393C70.7457 114.047 63.3286 119.806 52.5071 119.806C42.7342 119.806 37.0614 114.745 34.1816 108.636M77.3812 107.328L87.3283 101.569C89.9471 105.845 93.3504 108.987 99.3711 108.987C104.433 108.987 107.661 106.456 107.661 102.965C107.661 98.7766 104.345 97.2928 98.7602 94.8502L95.7067 93.5405C86.8926 89.7888 81.0456 85.0763 81.0456 75.1283C81.0456 65.9653 88.027 58.9839 98.9354 58.9839C106.702 58.9839 112.287 61.6895 116.301 68.7578L106.789 74.8662C104.694 71.114 102.426 69.6307 98.9354 69.6307C95.3573 69.6307 93.0884 71.8996 93.0884 74.8662C93.0884 78.5311 95.3573 80.0149 100.593 82.2844L103.647 83.593C114.031 88.044 119.878 92.5808 119.878 102.79C119.878 113.787 111.239 119.807 99.6331 119.807C88.2891 119.807 80.9588 114.397 77.3812 107.328Z" fill="#323330"/>
</g>
<defs>
<clipPath id="clip0_288_5">
<rect width="130" height="130" fill="white"/>
</clipPath>
</defs>
</svg>
