<svg width="150" height="102" viewBox="0 0 150 102" fill="none" xmlns="http://www.w3.org/2000/svg">
<g clip-path="url(#clip0_288_60)">
<path d="M44.6221 67.3074L49.1807 82.0629C50.2049 85.4131 50.632 87.7518 50.4609 89.0848C52.9541 82.4236 54.6962 75.1644 55.6872 67.3074H61.1687C58.8114 80.0988 55.7033 89.3937 51.8443 95.1923C48.8379 99.6607 45.5443 101.895 41.9578 101.895C41.0016 101.895 39.8227 101.607 38.4237 101.034V97.9509C39.1072 98.0509 39.9091 98.1044 40.8313 98.1044C42.5042 98.104 43.8534 97.642 44.879 96.7185C46.1074 95.5935 46.7224 94.3292 46.7224 92.9278C46.7224 91.9709 46.2428 90.0072 45.288 87.0366L38.9364 67.3074H44.6221ZM9.7333 58.2382L18.0829 83.6522H18.1345L26.5354 58.2382H33.399C34.902 70.8417 35.7896 82.3736 36.0621 92.8264H30.2754C30.0715 83.0554 29.5082 73.8667 28.5855 65.2601H28.5352L19.7232 92.8264H15.3164L6.55781 65.2601H6.50625C5.85684 73.5257 5.44707 82.7145 5.27695 92.8264H0C0.341016 80.5279 1.19443 68.9996 2.56025 58.2382H9.7333Z" fill="#00758F"/>
<path d="M103.271 57.725C112.253 57.725 116.744 63.4493 116.744 74.8923C116.744 81.1105 115.393 85.8075 112.694 88.9806C112.208 89.5604 111.671 90.0614 111.104 90.5255L117.46 93.6606L117.454 93.6603L115.198 97.548L106.92 92.73C105.548 93.1353 104.039 93.3379 102.394 93.3379C97.9836 93.3379 94.6895 92.0558 92.5115 89.4947C90.1209 86.6615 88.9262 82.2012 88.9262 76.1216C88.9262 69.9384 90.2744 65.2593 92.9738 62.0821C95.4324 59.1758 98.8654 57.725 103.271 57.725ZM75.7672 57.775C78.9773 57.775 81.8961 58.6319 84.5252 60.3396L83.1898 63.3081C80.9401 62.3542 78.7221 61.8752 76.5348 61.8752C74.76 61.8752 73.3924 62.3013 72.4391 63.1588C71.4805 64.0087 70.8875 65.1023 70.8875 66.4356C70.8875 68.4844 72.3506 70.2611 75.0521 71.7622C75.9371 72.2448 76.819 72.7329 77.6979 73.2267L77.8994 73.3398L78.0005 73.3965L78.2023 73.5096L78.3031 73.5663L78.5047 73.6797C80.5496 74.8298 82.4738 75.9275 82.4738 75.9275C85.175 77.8404 86.5215 79.8798 86.5215 83.2388C86.5215 86.1722 85.444 88.5802 83.2959 90.4644C81.1464 92.3401 78.2586 93.2806 74.6422 93.2806C71.2599 93.2806 67.9818 92.1981 64.8066 90.0511L66.292 87.08C69.0245 88.4463 71.4972 89.1287 73.7176 89.1287C75.8 89.1287 77.4301 88.6649 78.6093 87.749C79.7861 86.8263 80.4913 85.5395 80.4913 83.9078C80.4913 81.854 79.0593 80.0984 76.4322 78.6257C75.61 78.1725 74.7901 77.7149 73.9728 77.2529L73.7715 77.1392C73.4018 76.9308 73.0294 76.7198 72.6647 76.5132L72.4669 76.401C70.693 75.3944 69.1593 74.515 69.1593 74.515C66.5331 72.5986 65.2162 70.5425 65.2162 67.1546C65.2162 64.3527 66.1982 62.0879 68.1594 60.365C70.1254 58.6383 72.6613 57.775 75.7672 57.775ZM127.299 58.2379V88.5714H138.209V92.8262H121.766V58.2382L127.299 58.2379ZM144.271 88.5845V89.3035H143.071V92.8224H142.154V89.3035H140.908V88.5845H144.271ZM146.485 88.5845L147.637 91.4733L148.695 88.5845H149.995V92.8224H149.131V89.5972L147.927 92.8224H147.303L146.097 89.5972H146.051V92.8224H145.233V88.5845H146.485ZM102.706 61.9786C97.4135 61.9786 94.7656 66.3363 94.7656 75.0457C94.7656 80.0347 95.4673 83.6523 96.868 85.9071C98.1652 87.9939 100.197 89.0352 102.963 89.0352C108.256 89.0352 110.904 84.6437 110.904 75.8647C110.904 70.9456 110.202 67.3589 108.803 65.1029C107.504 63.0208 105.474 61.9786 102.707 61.9786" fill="#F29111"/>
<path d="M88.8331 2.14319C90.5888 -2.16068 96.728 1.09864 99.1104 2.60204C99.6943 2.97819 100.364 3.77285 101.033 4.06658C102.078 4.10749 103.121 4.18903 104.168 4.23258C106.13 4.6926 107.968 5.06846 109.514 5.947C116.7 10.1687 121.378 14.4709 125.683 21.577C126.603 23.0821 127.063 24.7109 127.814 26.3397C128.857 28.7675 130.029 31.3161 131.24 33.6118C131.782 34.7002 132.201 35.9104 132.954 36.8296C133.247 37.2499 134.082 37.3738 134.581 37.6249C135.96 38.3371 137.631 38.8778 138.929 39.7137C141.351 41.2206 143.694 43.0163 145.823 44.8546C146.616 45.5642 147.157 46.5687 147.913 47.3193V47.698C147.242 47.9035 146.573 48.1139 145.904 48.2826C144.442 48.6572 143.147 48.5725 141.728 48.9475C140.851 49.2011 139.763 49.5358 138.844 49.6208L138.929 49.7062C139.469 51.2479 142.396 52.5017 143.734 53.4238C145.359 54.594 146.865 56.0132 148.078 57.6432C148.496 58.0591 148.915 58.4375 149.332 58.8523C149.623 59.2725 149.705 59.8162 150 60.1908V60.3177C149.673 60.2028 149.439 59.9836 149.216 59.7545L149.084 59.6162C148.951 59.4789 148.817 59.3439 148.664 59.2325C147.742 58.6041 146.826 57.8524 145.904 57.2682C144.318 56.2646 142.479 55.6821 140.851 54.6746C139.931 54.0898 139.053 53.4238 138.176 52.7545C137.381 52.1679 136.505 51.0415 136.005 50.2056C135.71 49.7439 135.67 49.2011 135.334 48.8671C135.394 48.3091 135.906 48.1434 136.423 48.0072L136.542 47.976C136.721 47.9298 136.895 47.8836 137.048 47.8225C139.22 46.9025 141.809 46.5687 145.153 46.6523C145.027 45.8147 142.938 44.771 142.271 44.2695C140.932 43.3068 139.514 42.3023 138.094 41.4261C137.341 40.9672 136.044 40.6323 135.21 40.2573C134.082 39.7973 131.575 39.3375 130.949 38.4613C129.887 37.0801 129.124 35.4326 128.384 33.7684L128.182 33.3143L127.98 32.8604C127.105 30.8563 126.017 28.7669 125.14 26.715C124.681 25.714 124.47 24.8354 123.968 23.8753C120.919 17.9839 116.406 13.0513 110.935 9.58247C109.137 8.45374 107.132 7.40919 104.919 6.69929C103.665 6.32139 102.16 6.53036 100.824 6.24043H99.9442C99.1936 6.02942 98.5669 5.23563 97.9813 4.81711C96.6878 3.9409 95.3923 3.35258 93.8455 2.72742C93.3035 2.47666 91.7557 1.89272 91.2155 2.35245C90.8809 2.43633 90.7113 2.56229 90.629 2.89723C90.2961 3.397 90.5888 4.14987 90.7959 4.61077C91.4235 5.94642 92.3001 6.7402 93.0958 7.86893C93.8036 8.86993 94.6828 9.99865 95.1846 11.087C96.2674 13.4266 96.7716 16.0187 97.775 18.358C98.1471 19.2377 98.7357 20.2387 99.2774 21.0322C99.7365 21.662 100.571 22.1174 100.824 22.9147C101.327 23.7505 100.07 26.5086 99.7792 27.3845C98.6909 30.8119 98.9018 35.5761 100.155 38.547L100.222 38.7036L100.289 38.8623C100.746 39.9504 101.236 41.1221 102.453 41.4263C102.537 41.3433 102.453 41.3869 102.619 41.3433C102.913 39.0438 102.996 36.8293 103.791 35.0302C104.25 33.9052 105.167 33.11 105.795 32.1917C106.214 32.4419 106.214 33.1962 106.464 33.6954C107.007 34.9901 107.591 36.4096 108.262 37.7082C109.637 40.3824 111.185 42.975 112.939 45.3143C113.527 46.1499 114.36 47.0697 115.112 47.8222C115.447 48.1136 115.822 48.282 116.074 48.6569H116.156V48.7832C114.902 48.3223 114.108 47.0287 113.108 46.2735C111.226 44.854 108.972 42.7222 107.675 40.6767C107.132 39.5024 106.546 38.3769 105.961 37.2084V37.1239C105.711 37.4577 105.795 37.7891 105.67 38.2942C105.127 40.3824 105.545 42.7646 103.665 43.5157C101.534 44.3954 99.9445 42.0962 99.2774 41.0514C97.1458 37.5834 96.5619 31.7328 98.0651 27.0101C98.3991 25.9647 98.4445 24.7109 99.0275 23.8762C98.9015 23.1216 98.3185 22.9152 97.9813 22.4529C97.3965 21.6626 96.8958 20.742 96.4379 19.8643C95.5584 18.1499 94.9327 16.1014 94.265 14.2628C93.9714 13.512 93.8874 12.7582 93.5947 12.0474C93.0955 10.9625 92.1752 9.87415 91.4654 8.91435C90.5042 7.53487 87.7045 4.86124 88.8331 2.14319ZM102.536 10.331C102.647 10.4426 102.782 10.5402 102.922 10.6364L103.09 10.7515C103.314 10.9064 103.531 11.0695 103.664 11.2916C103.875 11.5856 103.914 11.8759 104.167 12.1705C104.167 13.175 103.875 13.8428 103.286 14.259C103.286 14.259 103.246 14.3028 103.204 14.3437C102.87 13.6742 102.578 13.0081 102.241 12.3391C101.827 11.7552 101.241 11.2919 100.904 10.6247H100.823V10.5408C101.327 10.4166 101.827 10.331 102.536 10.331Z" fill="#00758F"/>
</g>
<defs>
<clipPath id="clip0_288_60">
<rect width="150" height="102" fill="white"/>
</clipPath>
</defs>
</svg>
