<svg width="264" height="264" viewBox="0 0 264 264" fill="none" xmlns="http://www.w3.org/2000/svg">
<g clip-path="url(#clip0_288_67)">
<path d="M235.77 113.961C235.664 113.961 235.56 113.993 235.471 114.052L230.633 116.878C230.542 116.934 230.467 117.013 230.415 117.107C230.364 117.201 230.338 117.307 230.34 117.414V123.065C230.34 123.305 230.453 123.486 230.633 123.606L235.471 126.427C235.56 126.487 235.664 126.518 235.77 126.518C235.877 126.518 235.981 126.487 236.069 126.427L240.9 123.606C240.992 123.548 241.067 123.468 241.119 123.373C241.172 123.278 241.199 123.172 241.199 123.063V117.418C241.2 117.31 241.173 117.204 241.121 117.11C241.068 117.016 240.992 116.938 240.9 116.882L236.067 114.054C235.979 113.995 235.876 113.962 235.77 113.961ZM130.391 147.753C129.51 147.753 128.634 147.968 127.887 148.389L104.067 162.263C103.304 162.711 102.671 163.352 102.232 164.12C101.793 164.889 101.562 165.759 101.563 166.644V194.329C101.563 196.131 102.516 197.814 104.067 198.718L110.337 202.319C113.382 203.82 114.456 203.816 115.828 203.816C120.303 203.816 122.871 201.055 122.871 196.309V168.991C122.869 168.801 122.792 168.619 122.658 168.484C122.525 168.349 122.344 168.271 122.153 168.267H119.113C118.922 168.27 118.74 168.348 118.606 168.483C118.471 168.618 118.394 168.8 118.391 168.991V196.315C118.391 198.417 116.187 200.522 112.666 198.722L106.159 194.937C105.919 194.818 105.798 194.512 105.798 194.273V166.582C105.798 166.343 105.919 166.046 106.159 165.924L129.97 152.111C130.15 151.992 130.451 151.992 130.69 152.111L154.508 165.924C154.745 166.046 154.863 166.283 154.863 166.584V194.271C154.863 194.57 154.745 194.816 154.508 194.935L130.69 208.81C130.511 208.929 130.21 208.929 129.97 208.81L123.884 205.14C123.704 205.021 123.465 204.961 123.286 205.081C121.615 206.042 121.322 206.168 119.709 206.708C119.35 206.828 118.754 207.065 119.947 207.725L127.887 212.473C128.663 212.891 129.496 213.131 130.391 213.131C131.286 213.131 132.179 212.893 132.895 212.594L156.715 198.72C157.479 198.271 158.113 197.629 158.552 196.859C158.991 196.089 159.221 195.217 159.219 194.331V166.644C159.219 164.841 158.266 163.164 156.715 162.263L132.895 148.389C132.128 147.968 131.266 147.749 130.391 147.753ZM167.578 160.397C166.356 160.401 165.185 160.891 164.324 161.759C163.463 162.626 162.981 163.8 162.985 165.023C162.981 166.245 163.463 167.418 164.325 168.285C165.186 169.152 166.356 169.642 167.578 169.647C170.088 169.647 172.173 167.545 172.173 165.023C172.167 163.803 171.681 162.635 170.822 161.77C169.962 160.905 168.797 160.411 167.578 160.397ZM167.516 161.178C168.025 161.172 168.529 161.267 169.001 161.457C169.472 161.648 169.901 161.93 170.262 162.288C170.624 162.646 170.91 163.072 171.106 163.541C171.301 164.011 171.401 164.514 171.4 165.023C171.4 167.126 169.667 168.929 167.518 168.929C165.431 168.929 163.698 167.184 163.698 165.023C163.698 162.861 165.489 161.178 167.516 161.178ZM165.847 162.438V167.723H166.866V165.627H167.761C168.12 165.627 168.238 165.747 168.298 166.046C168.298 166.108 168.475 167.428 168.475 167.667H169.548C169.428 167.428 169.368 166.706 169.308 166.285C169.251 165.625 169.193 165.144 168.475 165.085C168.834 164.963 169.43 164.783 169.43 163.822C169.43 162.44 168.234 162.44 167.64 162.44L165.847 162.438ZM166.745 163.28H167.578C167.879 163.28 168.353 163.28 168.353 164C168.353 164.239 168.238 164.724 167.578 164.724H166.743L166.745 163.28ZM136.9 167.426C130.094 167.426 126.035 170.309 126.035 175.174C126.035 180.401 130.094 181.836 136.601 182.498C144.418 183.28 145.016 184.423 145.016 185.984C145.016 188.686 142.863 189.828 137.849 189.828C131.521 189.828 130.15 188.265 129.671 185.083C129.671 184.722 129.378 184.484 129.019 184.484H125.915C125.726 184.487 125.545 184.563 125.411 184.698C125.277 184.833 125.202 185.015 125.202 185.204C125.202 189.288 127.349 194.094 137.797 194.094C145.315 194.094 149.673 191.087 149.673 185.802C149.673 180.636 146.208 179.256 138.87 178.295C131.466 177.334 130.692 176.793 130.692 175.053C130.692 173.611 131.348 171.691 136.838 171.691C141.733 171.691 143.581 172.774 144.298 176.076C144.334 176.225 144.418 176.358 144.537 176.455C144.656 176.551 144.803 176.607 144.956 176.612H148.118C148.3 176.612 148.479 176.494 148.601 176.375C148.709 176.214 148.77 176.026 148.776 175.832C148.3 170.068 144.542 167.426 136.9 167.426Z" fill="#5FA04E"/>
<path d="M177.524 50.8695C177.27 50.8657 177.019 50.9291 176.798 51.053C176.567 51.1883 176.375 51.3802 176.24 51.6105C176.105 51.8408 176.03 52.1019 176.024 52.3689V91.41C176.024 91.7689 175.839 92.1319 175.482 92.3711C175.317 92.4596 175.133 92.5059 174.945 92.5059C174.758 92.5059 174.574 92.4596 174.409 92.3711L168.086 88.7102C167.621 88.445 167.096 88.3056 166.561 88.3056C166.027 88.3056 165.501 88.445 165.037 88.7102L139.734 103.426C139.266 103.69 138.876 104.073 138.603 104.536C138.331 105 138.185 105.527 138.181 106.064V135.434C138.181 136.515 138.78 137.538 139.734 138.078L165.041 152.794C165.505 153.059 166.03 153.198 166.564 153.198C167.099 153.198 167.624 153.059 168.088 152.794L193.392 138.078C194.347 137.538 194.946 136.515 194.946 135.434V62.2215C194.946 61.0809 194.347 60.0559 193.392 59.5175L178.295 51.053C178.056 50.9334 177.791 50.8705 177.524 50.8695ZM28.2296 87.5119C27.7531 87.5119 27.2767 87.6851 26.8601 87.9244L1.55318 102.587C1.07756 102.857 0.682836 103.25 0.409806 103.724C0.136776 104.199 -0.004659 104.737 0.000117074 105.284L0.0619921 144.682C0.0619921 145.225 0.35693 145.765 0.835429 146.006C1.05725 146.152 1.31676 146.229 1.58205 146.229C1.84734 146.229 2.10685 146.152 2.32868 146.006L17.3726 137.358C18.3275 136.818 18.9194 135.795 18.9194 134.714V116.275C18.9194 115.195 19.5176 114.172 20.4746 113.631L26.8601 109.909C27.3365 109.607 27.8769 109.488 28.4131 109.488C28.9494 109.488 29.4877 109.607 29.9064 109.909L36.2919 113.631C37.2468 114.172 37.8449 115.195 37.8449 116.275V134.714C37.8449 135.795 38.4389 136.818 39.3918 137.358L54.316 146.006C54.548 146.154 54.8174 146.233 55.0926 146.233C55.3677 146.233 55.6371 146.154 55.8691 146.006C56.1067 145.877 56.3045 145.686 56.4411 145.452C56.5778 145.219 56.6482 144.953 56.6446 144.682V105.284C56.6446 104.204 56.0465 103.181 55.0895 102.638L29.8445 87.9244C29.4192 87.6987 28.9541 87.5579 28.475 87.5098L28.2296 87.5119ZM235.855 87.945C235.333 87.945 234.816 88.0811 234.337 88.3534L209.026 103.061C208.071 103.601 207.479 104.624 207.479 105.707V135.077C207.479 136.158 208.071 137.181 209.026 137.721L234.156 152.132C234.608 152.397 235.123 152.537 235.648 152.537C236.173 152.537 236.688 152.397 237.14 152.132L252.361 143.608C252.599 143.478 252.796 143.287 252.932 143.053C253.069 142.82 253.139 142.554 253.135 142.284C253.138 142.014 253.067 141.749 252.931 141.516C252.795 141.284 252.598 141.093 252.361 140.964L226.937 126.246C226.706 126.11 226.513 125.917 226.378 125.685C226.242 125.454 226.169 125.192 226.164 124.924V115.733C226.161 115.464 226.231 115.198 226.367 114.966C226.503 114.733 226.7 114.542 226.937 114.413L234.878 109.847C235.11 109.699 235.379 109.62 235.654 109.62C235.929 109.62 236.199 109.699 236.431 109.847L244.363 114.411C244.595 114.546 244.789 114.739 244.926 114.97C245.062 115.202 245.137 115.464 245.143 115.733V122.941C245.143 123.484 245.44 124.024 245.916 124.264C246.148 124.412 246.418 124.491 246.694 124.491C246.969 124.491 247.239 124.412 247.471 124.264L262.509 115.436C262.97 115.167 263.351 114.78 263.614 114.315C263.876 113.85 264.01 113.324 264.002 112.79V105.643C264.002 104.563 263.404 103.546 262.509 103.003L237.379 88.3513C236.916 88.0861 236.391 87.9454 235.857 87.9429L235.855 87.945ZM166.561 109.878C166.695 109.878 166.832 109.909 166.953 109.97L175.603 115.015C175.843 115.135 175.964 115.432 175.964 115.673V125.763C175.964 126.064 175.843 126.307 175.603 126.427L166.951 131.472C166.83 131.531 166.697 131.562 166.561 131.562C166.426 131.562 166.293 131.531 166.172 131.472L157.519 126.427C157.28 126.307 157.158 126.004 157.158 125.763V115.673C157.158 115.372 157.282 115.135 157.519 115.013L166.172 109.97C166.293 109.908 166.425 109.876 166.561 109.878Z" fill="#333333"/>
<path d="M98.9632 88.4668C98.5001 88.2004 97.9753 88.0602 97.4411 88.0602C96.9068 88.0602 96.382 88.2004 95.9189 88.4668L70.7894 103.063C70.3289 103.332 69.948 103.718 69.6856 104.182C69.4233 104.646 69.2889 105.172 69.2962 105.705V134.954C69.2962 136.036 69.8943 137.057 70.7894 137.598L95.9189 152.192C96.382 152.458 96.9068 152.598 97.4411 152.598C97.9753 152.598 98.5001 152.458 98.9632 152.192L124.091 137.598C125.046 137.057 125.584 136.036 125.584 134.954V105.705C125.584 104.624 124.986 103.601 124.091 103.063L98.9632 88.4668Z" fill="url(#paint0_linear_288_67)"/>
<path d="M124.15 103.063L98.9029 88.4668C98.6551 88.3412 98.3953 88.241 98.1274 88.1677L69.834 136.876C70.0732 137.177 70.3702 137.416 70.6693 137.598L95.9184 152.192C96.6341 152.613 97.4694 152.732 98.2449 152.491L124.808 103.603C124.633 103.375 124.408 103.19 124.15 103.063Z" fill="url(#paint1_linear_288_67)"/>
<path d="M124.15 137.596C124.868 137.175 125.404 136.455 125.643 135.673L98.0058 88.1059C97.2922 87.9863 96.5146 88.0461 95.8588 88.4668L70.7891 103.001L97.8284 152.611C98.1853 152.551 98.6039 152.431 98.9628 152.25L124.15 137.596Z" fill="url(#paint2_linear_288_67)"/>
</g>
<defs>
<linearGradient id="paint0_linear_288_67" x1="107.674" y1="99.3356" x2="84.7247" y2="145.861" gradientUnits="userSpaceOnUse">
<stop stop-color="#3F873F"/>
<stop offset="0.33" stop-color="#3F8B3D"/>
<stop offset="0.637" stop-color="#3E9638"/>
<stop offset="0.934" stop-color="#3DA92E"/>
<stop offset="1" stop-color="#3DAE2B"/>
</linearGradient>
<linearGradient id="paint1_linear_288_67" x1="93.6219" y1="123.745" x2="157.653" y2="76.7264" gradientUnits="userSpaceOnUse">
<stop offset="0.138" stop-color="#3F873F"/>
<stop offset="0.402" stop-color="#52A044"/>
<stop offset="0.713" stop-color="#64B749"/>
<stop offset="0.908" stop-color="#6ABF4B"/>
</linearGradient>
<linearGradient id="paint2_linear_288_67" x1="68.3766" y1="120.319" x2="126.523" y2="120.319" gradientUnits="userSpaceOnUse">
<stop offset="0.092" stop-color="#6ABF4B"/>
<stop offset="0.287" stop-color="#64B749"/>
<stop offset="0.598" stop-color="#52A044"/>
<stop offset="0.862" stop-color="#3F873F"/>
</linearGradient>
<clipPath id="clip0_288_67">
<rect width="264" height="264" fill="white"/>
</clipPath>
</defs>
</svg>
