<svg width="176" height="175" viewBox="0 0 176 175" fill="none" xmlns="http://www.w3.org/2000/svg">
<g clip-path="url(#clip0_288_73)">
<path d="M3.92324 90.4921C4.81333 114.975 43.2654 133.452 89.8075 131.76C136.35 130.067 173.358 108.847 172.468 84.3644C171.578 59.8819 133.125 41.4049 86.5841 43.0969C40.0432 44.789 3.03315 66.0096 3.92324 90.4921Z" fill="url(#paint0_radial_288_73)"/>
<path d="M89.6874 128.468C134.411 126.842 170 107.148 169.176 84.4841C168.352 61.8174 131.427 44.7629 86.7033 46.3889C41.9796 48.0148 6.39062 67.7057 7.21469 90.3724C8.03867 113.036 44.9637 130.094 89.6874 128.468Z" fill="#777BB3"/>
<path d="M49.8949 93.9154C53.5726 93.7817 56.2921 93.0038 57.9803 91.6042C59.6518 90.217 60.7549 87.8814 61.2615 84.6616C61.7322 81.6515 61.4351 79.5738 60.3776 78.4836C59.2982 77.3705 57.0319 76.8688 53.6426 76.992L47.7645 77.2057L45.1177 94.0891L49.8949 93.9154ZM31.4223 115.265C31.2875 115.27 31.1532 115.245 31.0292 115.191C30.9053 115.138 30.7946 115.058 30.7052 114.957C30.6158 114.856 30.55 114.736 30.5123 114.606C30.4746 114.477 30.4661 114.341 30.4873 114.207L37.5062 69.4686C37.5394 69.2595 37.6441 69.0683 37.8025 68.9277C37.9609 68.787 38.1631 68.7056 38.3747 68.6974L56.9858 68.0207C62.8348 67.8081 67.2458 69.2378 70.0972 72.2709C72.961 75.318 73.9717 79.6903 73.097 85.2611C72.7405 87.53 72.0633 89.6497 71.0847 91.5628C70.0654 93.5313 68.7383 95.3244 67.1535 96.8743C65.2061 98.8332 62.974 100.286 60.5237 101.18C58.114 102.064 54.9948 102.581 51.2578 102.717L43.7207 102.991L41.9716 114.141C41.9386 114.35 41.8336 114.542 41.6747 114.683C41.5158 114.824 41.3128 114.905 41.1005 114.913L31.4223 115.265Z" fill="black"/>
<path d="M48.5515 78.0922L53.675 77.9059C57.7662 77.7572 59.2196 78.6035 59.7224 79.1219C60.5539 79.9803 60.7748 81.8485 60.3551 84.5206C59.8851 87.5135 58.8899 89.6606 57.3962 90.8989C55.868 92.1675 53.3306 92.8742 49.8609 93.0003L46.1924 93.1337L48.5515 78.0922ZM56.9518 67.1069L38.3421 67.7835C37.9177 67.799 37.5119 67.9614 37.194 68.2431C36.8762 68.5247 36.6661 68.9081 36.5998 69.3275L29.5809 114.068C29.5396 114.334 29.5576 114.606 29.6336 114.865C29.7097 115.124 29.8419 115.363 30.021 115.564C30.2 115.766 30.4213 115.926 30.6692 116.032C30.917 116.138 31.1853 116.188 31.4548 116.179L41.133 115.827C41.5573 115.811 41.963 115.648 42.2805 115.367C42.5981 115.085 42.8079 114.701 42.8739 114.282L44.5064 103.877L51.289 103.631C55.1234 103.491 58.3369 102.955 60.839 102.039C63.4115 101.099 65.7546 99.578 67.8025 97.5179C69.4533 95.9013 70.8358 94.032 71.8981 91.9803C72.9212 89.9825 73.6291 87.768 73.9993 85.4023C74.92 79.5371 73.8301 74.908 70.7619 71.6442C67.7225 68.4096 63.076 66.883 56.9518 67.1056L56.9518 67.1069ZM44.0401 95.042L49.9273 94.828C53.8294 94.687 56.7083 93.8462 58.5641 92.3055C60.42 90.7666 61.6203 88.2657 62.1651 84.8028C62.6841 81.4772 62.3075 79.158 61.0353 77.8453C59.7614 76.5327 57.2858 75.9432 53.6085 76.0769L46.9773 76.318L44.0401 95.042ZM57.0195 68.9319C62.6183 68.7284 66.755 70.0494 69.4296 72.8951C72.1041 75.7407 73.0257 79.8148 72.1945 85.1172C71.8502 87.3026 71.2091 89.3116 70.271 91.1441C69.3313 92.9785 68.0782 94.6709 66.512 96.2212C64.6465 98.0998 62.5461 99.4661 60.2109 100.32C57.8766 101.175 54.8809 101.668 51.2238 101.801L42.9335 102.102L41.0678 113.997L31.3896 114.349L38.4097 69.6085L57.0195 68.9319Z" fill="white"/>
<path d="M95.8908 101.094C95.7558 101.099 95.6214 101.074 95.4973 101.021C95.3731 100.968 95.2622 100.889 95.1725 100.788C95.0829 100.687 95.0167 100.567 94.9788 100.437C94.9409 100.308 94.9321 100.171 94.9532 100.038L98.0571 80.2426C98.3539 78.3595 98.2156 77.0223 97.6695 76.4726C97.3343 76.138 96.3467 75.5924 93.488 75.6964L86.5672 75.948L82.6647 100.835C82.6311 101.045 82.5257 101.236 82.3665 101.377C82.2074 101.517 82.0043 101.598 81.7922 101.606L72.193 101.955C72.0582 101.96 71.9239 101.935 71.7998 101.882C71.6757 101.829 71.5648 101.749 71.4751 101.648C71.3854 101.547 71.319 101.428 71.2808 101.299C71.2426 101.169 71.2335 101.033 71.2541 100.9L78.2743 56.1595C78.3076 55.9499 78.4127 55.7584 78.5716 55.6177C78.7305 55.477 78.9333 55.3959 79.1454 55.3882L88.7446 55.0392C88.8795 55.0342 89.0137 55.059 89.1378 55.112C89.262 55.165 89.3728 55.2447 89.4626 55.3455C89.5523 55.4463 89.6186 55.5657 89.6568 55.6951C89.695 55.8245 89.7041 55.9608 89.6835 56.0941L87.9903 66.8935L95.4339 66.6229C101.105 66.4167 104.986 67.275 107.301 69.2517C109.659 71.2663 110.495 74.5942 109.781 79.1465L106.515 99.9683C106.482 100.178 106.376 100.369 106.217 100.509C106.059 100.65 105.856 100.731 105.644 100.738L95.8908 101.094Z" fill="black"/>
<path d="M88.7123 54.1239L79.1118 54.473C78.6872 54.4885 78.2813 54.6512 77.9634 54.9331C77.6456 55.215 77.4356 55.5986 77.3695 56.0183L70.3507 100.757C70.3091 101.024 70.3269 101.296 70.4029 101.555C70.4789 101.814 70.6111 102.053 70.7901 102.255C70.9692 102.457 71.1906 102.616 71.4386 102.723C71.6865 102.829 71.955 102.879 72.2246 102.87L81.8251 102.521C82.2497 102.505 82.6556 102.342 82.9735 102.061C83.2913 101.779 83.5012 101.395 83.5673 100.975L87.3532 76.8344L93.5183 76.6103C96.373 76.5065 96.9956 77.0943 97.019 77.1211C97.1995 77.2992 97.4587 78.1534 97.1524 80.1014L94.0484 99.8955C94.0068 100.162 94.0246 100.435 94.1007 100.694C94.1767 100.953 94.3091 101.192 94.4883 101.394C94.6675 101.595 94.889 101.755 95.1372 101.861C95.3853 101.968 95.6539 102.018 95.9236 102.008L105.678 101.653C106.103 101.638 106.508 101.475 106.826 101.193C107.143 100.911 107.353 100.528 107.419 100.108L110.685 79.289C111.45 74.4012 110.512 70.791 107.895 68.5563C105.397 66.4242 101.31 65.4929 95.4003 65.7077L89.0666 65.938L90.5876 56.2379C90.6294 55.9711 90.6117 55.6983 90.5357 55.4392C90.4598 55.18 90.3275 54.9409 90.1483 54.7388C89.969 54.5368 89.7474 54.3769 89.4991 54.2706C89.2509 54.1643 88.9822 54.1142 88.7123 54.1239ZM88.7788 55.9542L86.913 67.8464L95.4667 67.5354C100.849 67.3397 104.595 68.1441 106.705 69.9484C108.817 71.7509 109.541 74.7703 108.878 79.0066L105.61 99.8245L95.8571 100.179L98.9624 80.3837C99.3157 78.132 99.1 76.613 98.3155 75.8267C97.531 75.0413 95.9106 74.6932 93.4544 74.7825L85.7791 75.0616L81.7585 100.69L72.1567 101.039L79.1769 56.2994L88.7787 55.9503L88.7788 55.9542Z" fill="white"/>
<path d="M125.429 91.1693C129.106 91.0355 131.827 90.2576 133.517 88.8579C135.186 87.4708 136.29 85.1352 136.797 81.9154C137.267 78.9053 136.972 76.8276 135.913 75.7374C134.833 74.6243 132.567 74.1226 129.178 74.2458L123.301 74.4595L120.652 91.3429L125.429 91.1693ZM106.96 112.519C106.825 112.524 106.691 112.499 106.566 112.446C106.442 112.393 106.331 112.313 106.241 112.212C106.152 112.11 106.085 111.991 106.048 111.861C106.01 111.731 106.001 111.595 106.022 111.461L113.041 66.7224C113.075 66.5128 113.18 66.3213 113.339 66.1806C113.498 66.0399 113.7 65.9587 113.912 65.951L132.522 65.2745C138.371 65.0618 142.782 66.4916 145.632 69.5247C148.497 72.5717 149.507 76.9441 148.632 82.5149C148.3 84.7087 147.621 86.8358 146.621 88.8166C145.602 90.7851 144.275 92.5781 142.69 94.128C140.744 96.0869 138.509 97.5393 136.06 98.434C133.651 99.318 130.531 99.8348 126.793 99.9707L119.257 100.245L117.509 111.394C117.476 111.604 117.371 111.796 117.212 111.937C117.053 112.078 116.849 112.159 116.637 112.167L106.96 112.519Z" fill="black"/>
<path d="M124.088 75.346L129.211 75.1597C133.302 75.011 134.756 75.8573 135.257 76.3757C136.093 77.234 136.311 79.1023 135.893 81.7743C135.421 84.7673 134.426 86.9144 132.932 88.1527C131.403 89.4213 128.865 90.128 125.397 90.2541L121.729 90.3875L124.088 75.346ZM132.488 64.3607L113.878 65.0373C113.454 65.0531 113.049 65.2156 112.731 65.4973C112.413 65.7789 112.204 66.162 112.137 66.5813L105.117 111.321C105.076 111.588 105.094 111.86 105.17 112.119C105.246 112.378 105.378 112.617 105.558 112.819C105.737 113.02 105.958 113.18 106.206 113.286C106.454 113.392 106.723 113.442 106.992 113.433L116.67 113.081C117.095 113.065 117.5 112.902 117.818 112.62C118.136 112.338 118.345 111.955 118.411 111.535L120.044 101.131L126.825 100.885C130.658 100.745 133.873 100.209 136.374 99.2928C138.948 98.3528 141.291 96.8318 143.34 94.7703C144.99 93.1541 146.372 91.2852 147.434 89.234C148.459 87.2362 149.164 85.0218 149.535 82.6561C150.456 76.7909 149.368 72.1617 146.298 68.8979C143.259 65.6634 138.613 64.1367 132.487 64.3595L132.488 64.3607ZM119.576 92.2958L125.462 92.0818C129.364 91.9408 132.244 91.1 134.102 89.5592C135.957 88.0203 137.157 85.5195 137.7 82.0567C138.222 78.7309 137.845 76.4117 136.57 75.0992C135.295 73.7866 132.82 73.1971 129.145 73.3307L122.515 73.5718L119.576 92.2958ZM132.554 66.1857C138.153 65.9822 142.29 67.3032 144.964 70.1489C147.639 72.9946 148.56 77.0686 147.728 82.3711C147.386 84.5565 146.745 86.5654 145.806 88.398C144.867 90.2323 143.614 91.9247 142.045 93.4751C140.18 95.3537 138.08 96.72 135.744 97.574C133.411 98.4288 130.416 98.9223 126.759 99.0544L118.47 99.3557L116.601 111.251L106.923 111.602L113.943 66.8624L132.554 66.1857Z" fill="white"/>
</g>
<defs>
<radialGradient id="paint0_radial_288_73" cx="0" cy="0" r="1" gradientUnits="userSpaceOnUse" gradientTransform="translate(53.4759 59.9064) rotate(-2.08214) scale(110.735 110.735)">
<stop stop-color="#AEB2D5"/>
<stop offset="0.3" stop-color="#AEB2D5"/>
<stop offset="0.75" stop-color="#484C89"/>
<stop offset="1" stop-color="#484C89"/>
</radialGradient>
<clipPath id="clip0_288_73">
<rect width="168.656" height="168.656" fill="white" transform="translate(0.859375 6.21954) rotate(-2.08214)"/>
</clipPath>
</defs>
</svg>
