<svg width="140" height="140" viewBox="0 0 140 140" fill="none" xmlns="http://www.w3.org/2000/svg">
<g clip-path="url(#clip0_288_53)">
<path d="M94.0495 83.207C94.7407 77.4517 94.534 76.6073 98.8204 77.5392L99.9087 77.6355C103.205 77.7853 107.518 77.105 110.05 75.9281C115.503 73.3983 118.737 69.172 113.36 70.2822C101.093 72.812 100.25 68.6601 100.25 68.6601C113.203 49.4419 118.618 25.0469 113.945 19.075C101.198 2.78685 79.1329 10.489 78.7632 10.6892L78.6451 10.7122C76.2214 10.2079 73.51 9.90826 70.4628 9.85904C64.912 9.76826 60.7 11.3148 57.5051 13.7375C57.5051 13.7375 18.1421 -2.47955 19.9731 34.1315C20.3625 41.9201 31.137 93.065 43.9875 77.6169C48.684 71.9687 53.2231 67.1923 53.2231 67.1923C55.4773 68.6897 58.1756 69.4531 61.0062 69.1786L61.225 68.9926C61.1571 69.6937 61.1867 70.3795 61.3135 71.1911C58.0028 74.8912 58.9762 75.5409 52.3568 76.9026C45.6609 78.2829 49.5951 80.7395 52.1621 81.3815C55.2771 82.1614 62.4795 83.265 67.3478 76.4498L67.1542 77.2275C68.4535 78.2665 68.365 84.6945 68.5487 89.2872C68.7325 93.8798 69.0409 98.1651 69.9771 100.694C70.9134 103.22 72.0181 109.729 80.7167 107.866C87.9857 106.306 93.5431 104.064 94.0495 83.207Z" fill="black"/>
<path d="M77.8834 112.405C74.0356 112.405 71.5309 110.917 70.0084 109.48C67.7115 107.313 66.8004 104.521 66.2568 102.853L66.0217 102.156C64.9257 99.1976 64.5549 94.9385 64.3351 89.4545C64.3027 88.5972 64.2753 87.7396 64.2531 86.882C64.2345 86.2246 64.2115 85.3999 64.1787 84.5348C62.7923 85.1953 61.3211 85.6606 59.807 85.9173C57.0945 86.381 54.1785 86.2301 51.1379 85.4699C48.9931 84.934 46.764 83.8228 45.4942 82.1056C41.7918 85.3485 38.2601 84.9078 36.3362 84.2668C32.9423 83.1348 29.9049 79.9553 27.0492 74.5434C25.0159 70.6901 23.0482 65.6676 21.2009 59.6181C17.9853 49.082 15.9421 37.9848 15.7606 34.3426C15.1896 22.9381 18.2587 14.7831 24.8824 10.1051C35.3332 2.72339 51.1652 7.06339 56.937 9.03432C60.8143 6.69698 65.3763 5.55839 70.5323 5.64151C73.3017 5.68635 75.9376 5.93026 78.3865 6.36557C80.9404 5.56276 85.987 4.40995 91.7631 4.48104C102.405 4.60792 111.224 8.75542 117.265 16.4751C121.575 21.9832 119.445 33.5485 117.79 39.9535C115.464 48.9606 111.385 58.5429 106.376 66.8839C107.736 66.8937 109.706 66.7296 112.508 66.1521C118.036 65.0103 119.651 67.9743 120.09 69.301C121.848 74.6243 114.208 78.646 111.825 79.7518C108.771 81.1704 103.793 82.0334 99.7157 81.8464L99.5374 81.8343L98.4667 81.7403L98.3606 82.6328L98.2588 83.5067C97.9854 94.0767 96.4749 100.77 93.3676 105.195C90.1115 109.831 85.5845 111.132 81.5977 111.986C80.3781 112.258 79.1329 112.398 77.8834 112.405ZM69.7874 73.9331C72.2713 75.9204 72.489 79.66 72.6826 86.649C72.7067 87.5207 72.7296 88.3465 72.7603 89.1176C72.8543 91.4517 73.0742 96.9182 73.9295 99.2282C74.0509 99.5542 74.1592 99.8867 74.2729 100.237C75.2267 103.159 75.7057 104.624 79.8302 103.74C83.2942 102.998 85.0737 102.332 86.4671 100.348C88.4928 97.4629 89.6259 91.6628 89.8337 83.1031L94.0468 83.2059L89.8621 82.7038L89.9846 81.6593C90.386 78.2162 90.6748 75.7268 92.9771 74.0818C94.8234 72.7617 96.9288 72.8896 98.6056 73.1915C96.7637 71.8014 96.254 70.1673 96.1184 69.4979L95.7673 67.7676L96.7538 66.302C102.441 57.8626 107.132 47.4906 109.624 37.8448C112.183 27.9332 111.402 22.669 110.623 21.6737C100.291 8.47104 82.3721 13.9212 80.5018 14.5414L80.1846 14.712L78.5987 15.0084L77.786 14.8399C75.5471 14.3751 73.0599 14.1181 70.3923 14.0743C66.2021 14.0043 62.8224 14.9942 60.0509 17.0974L58.1281 18.5554L55.8957 17.6356C51.1292 15.6865 37.1248 11.7676 29.7354 17.0012C25.6338 19.9062 23.7657 25.5992 24.1813 33.9215C24.3181 36.669 26.1862 47.0695 29.264 57.1582C33.5198 71.0992 37.3873 75.729 39.0017 76.2682C39.2828 76.3634 40.0145 75.7946 40.7418 74.9218C45.4734 69.231 49.9731 64.4874 50.1623 64.2873L52.6024 61.7203L55.5523 63.6803C56.7412 64.471 58.0526 64.9184 59.4001 65.0026L66.4362 59.0023L65.4168 69.4039C65.3938 69.6379 65.3829 69.9551 65.4748 70.5457L65.781 72.5178L64.4543 74.0031L64.3012 74.1748L68.1665 75.9598L69.7874 73.9331Z" fill="black"/>
<path d="M113.363 70.2822C101.096 72.8121 100.252 68.6591 100.252 68.6591C113.204 49.4408 118.619 25.0447 113.946 19.0739C101.198 2.7858 79.133 10.4891 78.7645 10.6892L78.6452 10.71C76.2215 10.208 73.5101 9.9083 70.4618 9.85908C64.911 9.7683 60.7001 11.3138 57.5052 13.7364C57.5052 13.7364 18.1412 -2.47951 19.9721 34.1316C20.3615 41.9202 31.136 93.065 43.9865 77.6169C48.683 71.9688 53.221 67.1924 53.221 67.1924C55.4752 68.6897 58.1735 69.4531 61.003 69.1786L61.2229 68.9927C61.1551 69.6938 61.1857 70.3795 61.3104 71.1911C58.0007 74.8913 58.9719 75.541 52.3548 76.9027C45.6577 78.283 49.5919 80.7396 52.1612 81.3816C55.2751 82.1614 62.4785 83.265 67.3457 76.4499L67.151 77.2275C68.4482 78.2666 69.3593 83.9858 69.2062 89.1702C69.053 94.3546 68.9513 97.9136 69.974 100.694C70.9966 103.474 72.0149 109.729 80.7146 107.866C87.9837 106.307 91.7505 102.27 92.2755 95.5369C92.6474 90.7496 93.4885 91.4572 93.5421 87.1763L94.218 85.1496C94.9957 78.6592 94.3416 76.5658 98.8205 77.5403L99.9088 77.6355C103.205 77.7864 107.519 77.105 110.051 75.9281C115.505 73.3972 118.739 69.1721 113.363 70.2822Z" fill="#336791"/>
<path d="M99.6723 110C89.7844 110.001 86.653 103.848 85.3706 101.332C83.4962 97.645 83.0906 83.3342 83.5081 71.5979C83.536 71.2061 83.7572 70.8383 84.1248 70.5726C84.4924 70.307 84.9773 70.1645 85.4765 70.1755C85.9757 70.1865 86.4497 70.3501 86.7978 70.6315C87.1459 70.9129 87.3405 71.2899 87.3404 71.6823C86.8588 85.2185 87.5432 97.4845 88.93 100.213C91.0966 104.469 94.3817 108.192 103.673 106.629C112.493 105.141 115.796 102.513 117.266 95.8122C118.397 90.6689 120.628 76.0381 120.902 73.1507C120.94 72.7524 121.177 72.3822 121.562 72.1216C121.947 71.8609 122.448 71.7312 122.955 71.7608C123.462 71.7905 123.933 71.9772 124.265 72.2798C124.596 72.5824 124.762 72.9762 124.724 73.3745C124.437 76.3792 122.216 90.983 121.042 96.3243C119.305 104.24 114.815 107.831 104.475 109.573C102.898 109.847 101.288 109.99 99.6723 110ZM46.0636 79.9475C45.1994 79.9476 44.3411 79.8364 43.5227 79.6182C37.1003 77.9342 30.9835 69.7148 25.341 55.186C21.0464 44.1259 18.3251 32.583 18.0865 28.8319C17.3782 17.7109 21.0241 9.84178 28.9198 5.44494C44.5411 -3.25382 70.8213 5.0301 71.9323 5.38634C72.3985 5.53967 72.7687 5.83153 72.9624 6.19837C73.156 6.56522 73.1575 6.97733 72.9663 7.34499C72.7752 7.71265 72.4069 8.00608 71.9418 8.16139C71.4767 8.3167 70.9523 8.32131 70.4829 8.17421V8.17538C70.2294 8.09335 45.0287 0.15982 31.1282 7.90703C24.3762 11.6699 21.2761 18.6589 21.9128 28.683C22.1141 31.8424 24.6565 43.1099 29.0062 54.3082C34.0434 67.2773 39.7769 75.4628 44.735 76.7612C45.5119 76.9663 47.8798 77.5862 51.2678 74.387C57.638 68.3636 63.4908 63.5566 63.549 63.5086C63.9053 63.2372 64.3817 63.0849 64.8779 63.0838C65.3741 63.0827 65.8516 63.2328 66.2099 63.5026C66.5683 63.7724 66.7796 64.1408 66.7995 64.5305C66.8194 64.9201 66.6463 65.3007 66.3166 65.5921C66.2584 65.639 60.4951 70.3745 54.2143 76.3124C51.2394 79.1225 48.3868 79.9475 46.0636 79.9475ZM129.449 67.2574C129.101 67.2578 128.76 67.1836 128.461 67.0429C128.163 66.9022 127.919 66.7003 127.756 66.4588C127.592 66.2173 127.516 65.9454 127.535 65.6724C127.553 65.3993 127.666 65.1354 127.861 64.9089C145.712 44.0919 151.978 18.9401 146.611 13.5519C139.856 6.76914 130.317 3.22542 118.261 3.02269C109.334 2.87035 102.237 4.66213 101.078 4.97502L100.788 5.0676C99.6216 5.35587 98.7269 4.85314 98.3899 4.26604C98.1979 3.92966 98.1689 3.54973 98.3084 3.19772C98.4479 2.84572 98.7463 2.54592 99.1474 2.35473L99.6634 2.18832L99.638 2.19418L99.6649 2.18715C101.635 1.62114 108.838 -0.0780689 117.763 0.00278985C131.104 0.112945 142.124 4.15706 149.631 11.6945C153.183 15.2617 153.19 23.48 149.653 34.2412C146.047 45.2122 139.263 57.0047 131.04 66.5929C130.865 66.7981 130.628 66.966 130.351 67.082C130.073 67.1979 129.764 67.2581 129.449 67.2574ZM130.36 76.8936C127.312 76.8936 124.581 76.5573 122.945 75.7862C121.263 74.9952 120.942 73.9182 120.9 73.3475C120.441 67.0148 124.888 65.912 127.156 65.4093C126.84 65.0343 126.389 64.5925 125.926 64.1367C124.603 62.8382 122.793 61.0594 121.397 58.3992C121.179 57.9844 120.493 57.0176 119.7 55.8996C115.401 49.8423 106.457 37.2365 112.203 30.7807C114.863 27.7936 120.156 26.6182 127.958 27.2745C125.663 21.7796 114.733 4.58947 88.8018 4.25549C81.0015 4.15237 74.6044 6.0379 69.7984 9.85115C59.0367 18.3929 59.4274 33.8475 59.4319 34.001C59.4384 34.1986 59.3954 34.3954 59.3052 34.58C59.215 34.7646 59.0794 34.9334 58.9062 35.0768C58.733 35.2203 58.5255 35.3355 58.2956 35.4159C58.0657 35.4963 57.818 35.5403 57.5664 35.5455C57.3149 35.5506 57.0645 35.5168 56.8296 35.4459C56.5947 35.375 56.3799 35.2685 56.1974 35.1324C56.0149 34.9962 55.8683 34.8332 55.766 34.6525C55.6637 34.4719 55.6076 34.2772 55.6011 34.0795C55.5772 33.3939 55.1746 17.1765 67.0756 7.73125C72.645 3.31097 79.9756 1.12895 88.8644 1.24262C105.458 1.45708 116.136 8.08515 122.174 13.6093C128.753 19.628 131.98 26.2678 132.245 28.4827C132.444 30.1303 130.939 30.4608 130.635 30.5088L129.944 30.5217C122.287 29.5584 117.375 30.2264 115.344 32.508C110.974 37.4158 119.435 49.3395 123.048 54.4325C123.971 55.7309 124.636 56.6695 124.94 57.2496C126.127 59.5113 127.675 61.0312 128.918 62.2523C130.011 63.3269 130.96 64.2574 131.3 65.3519C131.456 65.5687 133.69 68.1632 146.939 66.014C150.26 65.4761 152.251 65.9367 152.859 67.3827C154.056 70.2292 147.339 73.5479 143.62 74.9061C140.283 76.1237 134.964 76.8936 130.36 76.8936ZM124.722 73.0991C125.141 73.4331 127.244 74.0073 131.6 73.8608C135.471 73.7296 139.555 73.0675 142.006 72.1745C145.141 71.0308 147.231 69.7523 148.315 68.8792L147.713 68.9659C139.242 70.3405 133.25 70.1577 129.906 68.421C129.681 68.3042 129.464 68.1778 129.257 68.0425C128.895 68.155 128.559 68.2288 128.32 68.2816C126.422 68.6999 124.46 69.1323 124.722 73.0991ZM70.0012 81.5119C67.8972 81.5119 65.6828 81.2881 63.4207 80.8416C61.0781 80.3811 57.1265 78.9948 57.1877 76.7178C57.2548 74.162 61.9832 73.3956 63.7652 73.1073C70.1951 72.0667 70.6141 71.6495 72.6242 69.6444C73.2102 69.0597 73.9394 68.332 74.9325 67.4589C76.4087 66.1617 78.0222 65.5031 79.728 65.5031C80.915 65.5031 81.8902 65.8206 82.5329 66.0292C84.5848 66.6972 86.2966 68.312 87.0004 70.2456C87.6357 71.9893 87.333 73.6675 86.1475 74.9706C82.2585 79.2514 76.6756 81.5119 70.0012 81.5119ZM61.3271 76.8479C61.9057 77.1983 63.0628 77.667 64.3497 77.9213C66.3091 78.3057 68.2088 78.5014 70.0012 78.5014C75.4618 78.5014 79.8444 76.7237 83.0295 73.221C83.693 72.4897 83.4947 71.5628 83.3173 71.0741C82.9445 70.0523 82.02 69.123 81.0671 68.8112C80.5497 68.6425 80.1217 68.5136 79.728 68.5136C79.5163 68.5136 78.8736 68.5136 77.7895 69.4663C76.874 70.2702 76.2164 70.9265 75.6333 71.5065C73.1311 74.0038 71.9844 74.8511 64.5376 76.0569C62.7214 76.3522 61.7894 76.6499 61.3271 76.8479ZM76.0628 69.9011C75.6053 69.9005 75.1632 69.7715 74.8162 69.5373C74.4692 69.303 74.2402 68.979 74.1705 68.6237C74.1214 68.3737 74.0896 68.1218 74.0751 67.8691C69.193 67.7964 64.4839 66.1511 60.9096 63.2191C56.3899 59.5125 54.3321 54.3774 55.2656 49.1309C56.2796 43.4333 55.9008 38.4037 55.6965 35.7013C55.6458 35.1455 55.6144 34.5886 55.6026 34.0314C55.6055 33.5557 55.6175 32.2912 60.9931 30.1502C62.9048 29.3885 66.7386 28.0596 70.9257 27.7186C77.8656 27.1561 82.439 29.5842 83.8079 34.5576C87.503 47.9872 84.1001 53.9274 81.6159 58.2645C81.1521 59.0707 80.7152 59.8348 80.3663 60.573L80.0576 61.2258C78.7454 63.9914 77.6106 66.3808 77.9595 68.1667C78.0362 68.5615 77.9105 68.9641 77.61 69.2862C77.3095 69.6082 76.8587 69.8235 76.3565 69.8847L76.0628 69.9011ZM59.4468 34.4474L59.5228 35.5232C59.7346 38.3298 60.1282 43.554 59.0606 49.5493C58.2911 53.8758 59.9732 58.1004 63.6757 61.1367C66.6014 63.5367 70.4545 64.8609 74.4136 64.8609H74.4956C74.9399 63.3925 75.6751 61.8433 76.4669 60.1734L76.7741 59.5254C77.1692 58.691 77.6315 57.8836 78.1206 57.0293C80.5124 52.8528 83.4887 47.6544 80.0606 35.1939C79.3806 32.7271 77.7344 31.2986 75.0279 30.8276C69.4689 29.8619 61.1855 33.1479 59.4468 34.4474ZM71.0122 33.8088C70.9168 34.3408 72.2543 35.7623 73.996 35.9521C75.7362 36.1431 77.2259 35.0322 77.3198 34.5002C77.4138 33.9682 76.0777 33.3811 74.3345 33.19C72.5943 32.999 71.1047 33.2756 71.0122 33.8088ZM74.3971 36.4771L73.908 36.4502C72.827 36.3318 71.7339 35.7963 70.9869 35.017C70.7244 34.7439 70.295 34.2119 70.38 33.7385C70.5022 33.0436 71.5789 32.6287 73.2624 32.6287C73.6411 32.6287 74.0288 32.6502 74.4255 32.6932C75.344 32.7939 76.1985 33.0025 76.8292 33.2791C77.9222 33.7596 78.0028 34.2939 77.9536 34.5717C77.8179 35.3369 76.2641 36.4771 74.3971 36.4771ZM71.6474 33.8978C71.7026 34.226 72.736 35.3099 74.084 35.4564L74.3957 35.474C75.6393 35.474 76.5698 34.7041 76.6786 34.4521C76.5638 34.281 75.7645 33.8533 74.2465 33.6893C73.9199 33.6534 73.5907 33.6346 73.2609 33.633C72.2886 33.6318 71.7682 33.8041 71.6474 33.8978ZM124.018 32.7225C124.112 33.2557 122.778 34.6771 121.035 34.867C119.293 35.0568 117.803 33.9471 117.708 33.4139C117.615 32.8818 118.952 32.2947 120.693 32.1049C122.435 31.9127 123.923 32.1916 124.018 32.7225ZM120.634 35.1389C118.956 35.1389 117.511 34.1135 117.392 33.449C117.255 32.651 118.926 32.0439 120.65 31.8565C121.031 31.8143 121.403 31.7932 121.767 31.7932C123.254 31.7932 124.238 32.1365 124.336 32.6885C124.4 33.0471 124.051 33.599 123.449 34.0959C123.052 34.424 122.217 34.9924 121.081 35.1154L120.634 35.1389ZM121.765 32.2947C121.431 32.2947 121.088 32.3139 120.736 32.3521C119.004 32.5408 117.973 33.0881 118.023 33.3811C118.081 33.7021 119.186 34.6373 120.632 34.6373L120.988 34.6174C121.934 34.5131 122.644 34.0291 122.982 33.749C123.513 33.3096 123.725 32.8971 123.699 32.7553C123.668 32.5713 123.03 32.2947 121.765 32.2947ZM126.528 63.2941C126.181 63.294 125.841 63.2197 125.543 63.0793C125.245 62.939 125.002 62.7377 124.839 62.4971C124.675 62.2564 124.598 61.9854 124.615 61.713C124.633 61.4406 124.744 61.177 124.937 60.9504C129.017 56.161 128.27 51.2754 127.548 46.5528C127.239 44.5396 126.922 42.4595 127.005 40.4615C127.089 38.4072 127.42 36.7127 127.742 35.0721C128.122 33.1303 128.482 31.294 128.332 29.1166C128.321 28.7253 128.505 28.346 128.843 28.059C129.182 27.7719 129.649 27.5997 130.147 27.5786C130.644 27.5576 131.132 27.6895 131.508 27.9464C131.884 28.2032 132.118 28.5649 132.16 28.9549C132.33 31.444 131.923 33.5205 131.529 35.5303C131.225 37.0806 130.911 38.6837 130.835 40.5576C130.761 42.3259 131.049 44.2044 131.353 46.1919C132.123 51.2157 132.992 56.9098 128.122 62.625C127.752 63.0586 127.145 63.2941 126.528 63.2941Z" fill="white"/>
<path d="M3.10059 112.858C4.67084 112.602 6.2598 112.478 7.85074 112.488C10.2953 112.488 12.0879 113.057 13.2254 114.08C14.2776 114.99 14.9032 116.384 14.9032 118.091C14.9032 119.826 14.3903 121.191 13.4234 122.186C12.1153 123.58 9.98246 124.291 7.56527 124.291C6.8259 124.291 6.1434 124.262 5.57574 124.12V131.799H3.10059V112.858ZM5.57574 122.1C6.11605 122.242 6.79855 122.299 7.62324 122.299C10.6081 122.299 12.4292 120.848 12.4292 118.204C12.4292 115.673 10.6376 114.45 7.90762 114.45C6.82699 114.45 6.0023 114.535 5.57574 114.649V122.1ZM29.8898 124.801C29.8898 129.892 26.3625 132.111 23.0353 132.111C19.31 132.111 16.4378 129.381 16.4378 125.029C16.4378 120.422 19.4521 117.72 23.2628 117.72C27.2167 117.719 29.8898 120.593 29.8898 124.801ZM18.9698 124.943C18.9698 127.958 20.7045 130.233 23.1501 130.233C25.5389 130.233 27.3293 127.986 27.3293 124.887C27.3293 122.555 26.1645 119.597 23.2059 119.597C20.2473 119.597 18.9698 122.327 18.9698 124.943ZM32.704 129.238C33.4434 129.721 34.7515 130.233 36.0028 130.233C37.8228 130.233 38.6759 129.323 38.6759 128.185C38.6759 126.991 37.9661 126.337 36.1165 125.654C33.6425 124.773 32.4765 123.408 32.4765 121.758C32.4765 119.54 34.2681 117.72 37.2256 117.72C38.619 117.72 39.8429 118.118 40.6107 118.573L39.9851 120.393C39.1387 119.872 38.1639 119.596 37.1698 119.597C35.6911 119.597 34.8664 120.45 34.8664 121.474C34.8664 122.612 35.6922 123.123 37.4837 123.806C39.8725 124.716 41.0953 125.91 41.0953 127.958C41.0953 130.375 39.2184 132.081 35.9481 132.081C34.4409 132.081 33.0475 131.712 32.0806 131.143L32.704 129.238ZM47.322 114.079V118.032H50.904V119.937H47.322V127.36C47.322 129.066 47.8043 130.033 49.1989 130.033C49.6878 130.041 50.1755 129.984 50.6492 129.862L50.7629 131.739C50.2806 131.938 49.5117 132.08 48.5459 132.08C47.38 132.08 46.4404 131.711 45.8432 131.028C45.1334 130.289 44.8764 129.066 44.8764 127.445V119.937H42.7436V118.032H44.8764V114.733L47.322 114.079ZM65.4082 118.033C65.3503 119.028 65.2945 120.138 65.2945 121.815V129.806C65.2945 132.963 64.6689 134.897 63.3323 136.092C61.9957 137.343 60.062 137.741 58.3273 137.741C56.6779 137.741 54.8579 137.343 53.7478 136.604L54.3734 134.699C55.2834 135.267 56.7053 135.779 58.4115 135.779C60.9709 135.779 62.8478 134.443 62.8478 130.973V129.438H62.7909C62.0231 130.717 60.5443 131.741 58.4115 131.741C54.999 131.741 52.5534 128.841 52.5534 125.029C52.5534 120.365 55.5962 117.72 58.7528 117.72C61.1426 117.72 62.4507 118.972 63.0479 120.109H63.1048L63.2186 118.033H65.4082ZM62.8204 123.465C62.8204 123.038 62.792 122.668 62.6782 122.327C62.2232 120.877 61.0004 119.683 59.1804 119.683C56.7906 119.683 55.0854 121.702 55.0854 124.887C55.0854 127.588 56.4504 129.835 59.152 129.835C60.6876 129.835 62.0811 128.868 62.6214 127.275C62.7636 126.849 62.8215 126.365 62.8215 125.939L62.8204 123.465ZM69.2747 122.327C69.2747 120.706 69.2462 119.313 69.1609 118.033H71.3517L71.4359 120.735H71.5497C72.1753 118.886 73.6825 117.72 75.3603 117.72C75.6447 117.72 75.8426 117.749 76.0701 117.806V120.166C75.7903 120.105 75.5044 120.076 75.2181 120.081C73.455 120.081 72.2026 121.417 71.8625 123.294C71.792 123.679 71.754 124.069 71.7487 124.46V131.797H69.2747V122.327ZM79.6839 125.37C79.7407 128.754 81.9009 130.148 84.4034 130.148C86.1961 130.148 87.2756 129.835 88.214 129.437L88.6406 131.228C87.759 131.626 86.2518 132.081 84.0621 132.081C79.825 132.081 77.294 129.294 77.294 125.143C77.294 120.991 79.7396 117.719 83.7493 117.719C88.2425 117.719 89.4368 121.672 89.4368 124.203C89.4368 124.715 89.38 125.113 89.3515 125.369L79.6839 125.37ZM87.0207 123.578C87.0481 121.986 86.3656 119.512 83.5514 119.512C81.0204 119.512 79.9114 121.844 79.7112 123.578H87.0207Z" fill="black"/>
<path d="M92.281 128.782C93.6214 129.589 95.1533 130.021 96.7173 130.034C99.2482 130.034 100.727 128.697 100.727 126.763C100.727 124.972 99.7032 123.948 97.1154 122.953C93.9873 121.844 92.0535 120.223 92.0535 117.521C92.0535 114.535 94.5276 112.317 98.2529 112.317C100.215 112.317 101.637 112.772 102.49 113.256L101.808 115.275C100.689 114.674 99.4376 114.361 98.1676 114.365C95.5513 114.365 94.556 115.929 94.556 117.237C94.556 119.028 95.7209 119.91 98.3666 120.934C101.609 122.186 103.258 123.749 103.258 126.564C103.258 129.522 101.068 132.081 96.5466 132.081C94.6982 132.081 92.6791 131.541 91.6543 130.858L92.281 128.782ZM122.453 134.612C119.981 133.963 117.534 133.223 115.116 132.394C114.718 132.252 114.32 132.11 113.95 132.11C109.4 131.939 105.504 128.583 105.504 122.412C105.504 116.27 109.258 112.317 114.434 112.317C119.638 112.317 123.023 116.355 123.023 122.014C123.023 126.934 120.748 130.091 117.563 131.2V131.313C119.468 131.797 121.544 132.252 123.165 132.536L122.453 134.612ZM120.406 122.128C120.406 118.289 118.416 114.335 114.349 114.335C110.168 114.335 108.121 118.203 108.149 122.356C108.121 126.422 110.367 130.091 114.235 130.091C118.189 130.091 120.406 126.507 120.406 122.128ZM126.234 112.63H128.709V129.721H136.899V131.797H126.234V112.63Z" fill="#336791"/>
</g>
<defs>
<clipPath id="clip0_288_53">
<rect width="140" height="140" fill="white"/>
</clipPath>
</defs>
</svg>
