<svg width="80" height="80" viewBox="0 0 80 80" fill="none" xmlns="http://www.w3.org/2000/svg">
<g clip-path="url(#clip0_288_2)">
<path d="M39.6609 0.022583C19.4009 0.022583 20.6659 8.84298 20.6659 8.84298L20.6884 17.9812H40.0221V20.7247H13.0093C13.0093 20.7247 0.0449219 19.2486 0.0449219 39.771C0.0449219 60.294 11.3605 59.5661 11.3605 59.5661H18.1137V50.0427C18.1137 50.0427 17.7496 38.6827 29.2487 38.6827H48.4243C48.4243 38.6827 59.1977 38.8574 59.1977 28.2296V10.6573C59.1977 10.6573 60.834 0.022583 39.6609 0.022583ZM29.0002 6.16784C29.4571 6.16743 29.9096 6.25746 30.3317 6.43279C30.7539 6.60812 31.1375 6.86531 31.4606 7.18963C31.7836 7.51395 32.0398 7.89905 32.2144 8.32287C32.3891 8.7467 32.4788 9.20094 32.4784 9.6596C32.4788 10.1183 32.3891 10.5725 32.2144 10.9963C32.0398 11.4202 31.7836 11.8053 31.4606 12.1296C31.1375 12.4539 30.7539 12.7111 30.3317 12.8864C29.9096 13.0617 29.4571 13.1518 29.0002 13.1514C28.5434 13.1518 28.0909 13.0617 27.6687 12.8864C27.2466 12.7111 26.863 12.4539 26.5399 12.1296C26.2169 11.8053 25.9607 11.4202 25.786 10.9963C25.6114 10.5725 25.5217 10.1183 25.5221 9.6596C25.5217 9.20094 25.6114 8.7467 25.786 8.32287C25.9607 7.89905 26.2169 7.51395 26.5399 7.18963C26.863 6.86531 27.2466 6.60812 27.6687 6.43279C28.0909 6.25746 28.5434 6.16743 29.0002 6.16784Z" fill="url(#paint0_linear_288_2)"/>
<path d="M40.2364 79.7258C60.4964 79.7258 59.2314 70.9054 59.2314 70.9054L59.2089 61.7675H39.8749V59.024H66.8877C66.8877 59.024 79.852 60.5001 79.852 39.9771C79.852 19.4544 68.5364 20.1823 68.5364 20.1823H61.7833V29.7054C61.7833 29.7054 62.1474 41.0654 50.6483 41.0654H31.4727C31.4727 41.0654 20.6992 40.8907 20.6992 51.5187V69.0914C20.6992 69.0914 19.0633 79.7258 40.2361 79.7258M50.8967 73.5812C50.4399 73.5816 49.9874 73.4916 49.5652 73.3162C49.1431 73.1409 48.7595 72.8837 48.4364 72.5594C48.1134 72.2351 47.8572 71.85 47.6825 71.4261C47.5079 71.0023 47.4182 70.5481 47.4186 70.0894C47.4182 69.6307 47.5078 69.1764 47.6824 68.7526C47.8571 68.3287 48.1132 67.9436 48.4363 67.6192C48.7594 67.2949 49.143 67.0377 49.5652 66.8623C49.9873 66.687 50.4398 66.5969 50.8967 66.5973C51.3536 66.5969 51.8061 66.6869 52.2282 66.8623C52.6504 67.0376 53.034 67.2948 53.3571 67.6191C53.6801 67.9434 53.9363 68.3285 54.1109 68.7524C54.2856 69.1762 54.3753 69.6304 54.3749 70.0891C54.3753 70.5478 54.2856 71.002 54.1109 71.4258C53.9363 71.8496 53.6801 72.2347 53.3571 72.5591C53.034 72.8834 52.6504 73.1406 52.2282 73.3159C51.8061 73.4912 51.3536 73.5816 50.8967 73.5812Z" fill="url(#paint1_linear_288_2)"/>
</g>
<defs>
<linearGradient id="paint0_linear_288_2" x1="766.986" y1="716.905" x2="4737.3" y2="4632.25" gradientUnits="userSpaceOnUse">
<stop stop-color="#387EB8"/>
<stop offset="1" stop-color="#366994"/>
</linearGradient>
<linearGradient id="paint1_linear_288_2" x1="1152.71" y1="1245.59" x2="5415.59" y2="5259.69" gradientUnits="userSpaceOnUse">
<stop stop-color="#FFE052"/>
<stop offset="1" stop-color="#FFC331"/>
</linearGradient>
<clipPath id="clip0_288_2">
<rect width="80" height="80" fill="white"/>
</clipPath>
</defs>
</svg>
