<svg width="189" height="189" viewBox="0 0 189 189" fill="none" xmlns="http://www.w3.org/2000/svg">
<path d="M94.4996 83.8688C102.084 83.8688 108.232 77.7208 108.232 70.1368C108.232 62.5528 102.084 56.4048 94.4996 56.4048C86.9156 56.4048 80.7676 62.5528 80.7676 70.1368C80.7676 77.7208 86.9156 83.8688 94.4996 83.8688Z" fill="#61DAFB"/>
<path d="M94.4998 120.635C105.279 131.119 115.91 137.32 124.474 137.32C127.279 137.32 129.937 136.73 132.152 135.401C139.83 130.971 142.636 119.897 139.978 104.098C139.535 101.292 138.944 98.4868 138.206 95.5336C141.159 94.6477 143.817 93.7618 146.475 92.8758C161.388 87.1172 169.657 79.1438 169.657 70.4321C169.657 61.5727 161.388 53.5993 146.475 47.9883C143.817 46.9547 141.159 46.0688 138.206 45.3305C138.944 42.3774 139.535 39.5719 139.978 36.7665C142.488 20.6719 139.683 9.45005 132.004 5.02036C129.79 3.69146 127.132 3.10083 124.326 3.10083C115.91 3.10083 105.131 9.30239 94.3521 19.786C83.7209 9.30239 73.0896 3.10083 64.5256 3.10083C61.7201 3.10083 59.0623 3.69146 56.8475 5.02036C49.1693 9.45005 46.3639 20.5243 49.0217 36.3235C49.4646 39.129 50.0553 41.9344 50.7936 44.8875C47.8404 45.7735 45.1826 46.6594 42.5248 47.5454C27.6115 53.304 19.3428 61.2774 19.3428 69.9891C19.3428 78.8485 27.6115 86.8219 42.5248 92.4329C45.1826 93.4665 47.8404 94.3524 50.7936 95.0907C50.0553 98.0438 49.4646 100.849 49.0217 103.655C46.5115 119.454 49.317 130.676 56.8475 134.958C59.0623 136.287 61.7201 136.877 64.5256 136.877C73.0896 137.173 83.7209 130.971 94.4998 120.635ZM86.2311 100.702C88.8889 100.849 91.6943 100.849 94.4998 100.849C97.3053 100.849 100.111 100.849 102.769 100.702C100.111 104.245 97.3053 107.494 94.4998 110.595C91.6943 107.494 88.8889 104.245 86.2311 100.702ZM67.9217 85.493C69.3982 88.0032 70.7271 90.3657 72.3514 92.7282C67.774 92.1376 63.492 91.3993 59.3576 90.5133C60.6865 86.5266 62.1631 82.3922 63.935 78.2579C65.1162 80.6204 66.4451 83.1305 67.9217 85.493ZM59.3576 49.9079C63.492 49.0219 67.774 48.2836 72.3514 47.693C70.8748 50.0555 69.3982 52.418 67.9217 54.9282C66.4451 57.4383 65.1162 59.8008 63.935 62.311C62.0154 58.029 60.5389 53.8946 59.3576 49.9079ZM67.4787 70.1368C69.3982 66.1501 71.4654 62.1633 73.8279 58.1766C76.0428 54.3376 78.5529 50.4985 81.0631 46.6594C85.4928 46.3641 89.9225 46.2165 94.4998 46.2165C99.2248 46.2165 103.654 46.3641 107.937 46.6594C110.594 50.4985 112.957 54.3376 115.172 58.1766C117.534 62.1633 119.601 66.1501 121.521 70.1368C119.601 74.1235 117.534 78.1102 115.172 82.0969C112.957 85.936 110.447 89.7751 107.937 93.6141C103.507 93.9094 99.0771 94.0571 94.4998 94.0571C89.7748 94.0571 85.3451 93.9094 81.0631 93.6141C78.4053 89.7751 76.0428 85.936 73.8279 82.0969C71.4654 78.1102 69.3982 74.1235 67.4787 70.1368ZM125.212 62.1633L121.226 54.7805C119.749 52.2704 118.42 49.9079 116.796 47.5454C121.373 48.136 125.655 48.8743 129.79 49.7602C128.461 53.8946 126.984 58.029 125.212 62.1633ZM125.212 78.1102C126.984 82.2446 128.461 86.379 129.79 90.3657C125.655 91.2516 121.373 91.9899 116.796 92.5805C118.272 90.218 119.749 87.8555 121.226 85.3454C122.554 83.1305 123.883 80.6204 125.212 78.1102ZM128.608 129.347C127.427 130.085 125.951 130.381 124.326 130.381C117.091 130.381 108.084 124.474 99.2248 115.615C103.507 111.038 107.641 105.87 111.776 100.111C118.715 99.5204 125.36 98.4868 131.562 97.0102C132.3 99.668 132.743 102.326 133.186 104.984C135.253 117.534 133.629 126.541 128.608 129.347ZM136.287 51.5321C152.824 56.2571 162.717 63.4922 162.717 70.1368C162.717 75.8954 155.925 81.654 143.965 86.2313C141.602 87.1172 138.944 88.0032 136.287 88.7415C134.367 82.6875 132.004 76.486 129.051 70.1368C132.004 63.7876 134.515 57.586 136.287 51.5321ZM124.474 9.89302C126.098 9.89302 127.427 10.1883 128.756 10.9266C133.629 13.7321 135.401 22.5915 133.333 35.2899C132.89 37.8 132.3 40.4579 131.709 43.2633C125.508 41.9344 118.863 40.9008 111.923 40.1625C107.937 34.404 103.655 29.236 99.3725 24.6586C108.232 15.9469 117.239 9.89302 124.474 9.89302ZM102.769 39.5719C100.111 39.4243 97.3053 39.4243 94.4998 39.4243C91.6943 39.4243 88.8889 39.4243 86.2311 39.5719C88.8889 36.0282 91.6943 32.7797 94.4998 29.679C97.3053 32.7797 100.111 36.1758 102.769 39.5719ZM60.3912 10.9266C61.5725 10.1883 63.049 9.89302 64.6732 9.89302C71.9084 9.89302 80.9154 15.7993 89.7748 24.6586C85.4928 29.236 81.3584 34.404 77.224 40.1625C70.2842 40.7532 63.6396 41.7868 57.4381 43.2633C56.6998 40.6055 56.2568 37.9477 55.8139 35.2899C53.7467 22.7391 55.3709 13.8797 60.3912 10.9266ZM52.7131 88.7415C36.1756 84.0165 26.2826 76.7813 26.2826 70.1368C26.2826 64.3782 33.0748 58.6196 45.035 54.0422C47.3975 53.1563 50.0553 52.2704 52.7131 51.5321C54.6326 57.586 56.9951 63.7876 59.9482 70.1368C56.9951 76.486 54.485 82.8352 52.7131 88.7415ZM55.8139 104.984C56.2568 102.473 56.8475 99.8157 57.4381 97.0102C63.6396 98.3391 70.2842 99.3727 77.224 100.111C81.2107 105.87 85.4928 111.038 89.7748 115.615C80.9154 124.327 71.9084 130.381 64.6732 130.381C63.049 130.381 61.7201 130.085 60.3912 129.347C55.3709 126.541 53.7467 117.534 55.8139 104.984ZM49.6123 165.818C52.8607 161.831 53.0084 157.402 51.2365 152.972C49.4646 148.542 45.7732 146.475 41.1959 146.327C35.7326 146.18 30.1217 146.327 24.6584 146.327H23.6248V184.57H28.0545V170.1H34.9943C35.8803 170.1 36.6186 170.395 37.0615 171.134L45.9209 184.866C46.0686 185.161 46.5115 185.604 46.8068 185.604H52.5654C49.0217 180.141 45.6256 174.973 42.0818 169.657C45.1826 169.214 47.8404 168.181 49.6123 165.818ZM28.0545 165.523V150.905H29.6787C33.0748 150.905 36.6186 150.757 40.0146 151.052C44.0014 151.2 46.8068 154.301 46.8068 158.288C46.8068 162.274 43.5584 165.375 39.5717 165.523C36.0279 165.67 32.4842 165.523 28.0545 165.523ZM85.1975 167.442C82.835 157.106 73.385 154.448 66.1498 157.697C60.5389 160.207 58.0287 165.08 57.8811 171.134C57.7334 175.711 59.0623 179.845 62.6061 182.946C66.5928 186.49 71.4654 186.933 76.4857 186.047C79.2912 185.456 81.8014 184.127 83.7209 182.06C82.9826 181.027 82.2443 179.993 81.5061 179.107C77.3717 182.651 72.7943 183.832 67.774 181.47C64.5256 179.845 62.9014 175.859 62.6061 172.906H85.4928V170.986C85.6404 169.657 85.4928 168.476 85.1975 167.442ZM62.9014 169.805C62.4584 165.375 66.8881 160.65 71.7607 160.65C77.3717 160.502 80.9154 163.898 81.0631 169.805H62.9014ZM108.232 156.959C106.017 156.516 103.654 156.368 101.44 156.516C97.8959 156.811 94.7951 158.435 92.285 161.093C93.0232 162.127 93.6139 163.16 94.4998 164.341C94.7951 164.046 95.0904 163.751 95.3857 163.603C97.7482 161.388 100.554 160.207 103.95 160.502C106.608 160.65 109.118 161.536 109.856 164.194C110.447 166.261 110.299 168.476 110.447 170.691C110.004 170.691 109.856 170.543 109.708 170.395C106.165 167.442 102.178 166.852 97.8959 167.885C93.9092 168.919 91.399 172.02 91.1037 176.006C90.8084 180.584 92.8756 183.98 96.8623 185.604C99.3725 186.638 102.178 186.638 104.836 186.047C106.903 185.604 107.789 184.423 110.742 182.798V184.718H114.876C114.876 178.812 115.024 171.577 114.876 164.784C114.876 160.502 112.366 157.845 108.232 156.959ZM110.299 175.563C110.151 176.006 110.299 176.449 110.299 176.892C110.299 179.993 109.561 181.027 106.608 182.208C104.54 182.946 102.326 183.241 100.111 182.503C97.6006 181.765 95.8287 179.55 95.8287 177.04C95.6811 174.53 97.3053 172.02 99.8154 171.281C103.212 170.1 106.312 170.838 109.118 172.906C110.004 173.644 110.594 174.382 110.299 175.563ZM133.333 160.945C137.172 159.764 140.716 160.502 143.374 163.751L143.817 164.046C144.851 163.16 145.737 162.274 146.918 161.241C146.475 160.798 146.327 160.502 146.032 160.059C141.75 155.482 133.333 154.891 128.165 158.583C120.93 163.898 121.078 174.234 124.622 179.698C128.018 184.866 132.89 186.638 138.649 185.899C142.045 185.456 144.851 183.832 147.065 181.027C146.032 180.141 144.998 179.255 143.965 178.221C143.669 178.516 143.522 178.664 143.374 178.959C139.387 183.389 132.743 182.946 129.199 178.221C127.132 175.416 126.689 172.167 127.279 168.919C127.575 165.227 129.494 162.274 133.333 160.945ZM164.046 181.027C163.751 181.174 163.603 181.322 163.603 181.322C162.422 182.208 161.24 182.356 159.912 181.913C158.583 181.322 158.435 180.141 158.287 178.959V162.127C158.287 161.831 158.287 162.422 158.435 160.945H164.046V156.516H158.14V149.133H153.71V157.106H149.871C149.576 157.106 149.133 157.402 149.133 157.697C148.985 158.731 149.133 159.469 149.133 160.945H153.858V179.845C153.858 182.208 154.448 184.275 156.515 185.456C158.73 186.785 163.012 186.49 164.932 184.866C165.227 184.718 165.375 184.127 165.375 183.98C164.932 183.094 164.489 182.06 164.046 181.027Z" fill="#61DAFB"/>
</svg>
