<svg width="674" height="84" viewBox="0 0 674 84" fill="none" xmlns="http://www.w3.org/2000/svg">
<g clip-path="url(#clip0_288_32)">
<path d="M69.5944 0C51.0358 0 39.4365 9.25181 34.7966 27.7554C41.756 18.5023 49.8756 15.0329 59.1553 17.3473C64.4486 18.6664 68.2333 22.4962 72.4221 26.7356C79.245 33.6394 87.1421 41.6325 104.391 41.6325C122.95 41.6325 134.549 32.3807 139.188 13.8771C132.228 23.1302 124.109 26.5996 114.83 24.2852C109.536 22.9661 105.752 19.1362 101.563 14.8969C94.7391 7.99312 86.8433 0 69.5944 0ZM34.7966 41.6325C16.2387 41.6325 4.63989 50.8843 0 69.3879C6.9594 60.1348 15.0786 56.6654 24.3575 58.9798C29.652 60.2989 33.4367 64.1287 37.6242 68.3668C44.4485 75.2732 52.3456 83.2637 69.5944 83.2637C88.1523 83.2637 99.7511 74.0123 104.391 55.5096C97.4316 64.7627 89.3125 68.2321 80.0335 65.9177C74.739 64.5986 70.9543 60.7687 66.7655 56.5294C59.9426 49.6256 52.0454 41.6325 34.7966 41.6325Z" fill="url(#paint0_linear_288_32)"/>
<path d="M208.772 35.0832H196.627V58.5218C196.627 64.7719 200.74 64.6748 208.772 64.2836V73.756C192.513 75.709 186.048 71.2176 186.048 58.5218V35.0845H177.037V24.9283H186.048V11.8112L196.627 8.68747V24.9283H208.772V35.0832ZM255.07 24.9283H265.648V73.756H255.07V66.7249C251.348 71.9014 245.569 75.0265 237.93 75.0265C224.608 75.0265 213.54 63.7954 213.54 49.3422C213.54 34.7918 224.608 23.6592 237.929 23.6592C245.569 23.6592 251.348 26.7829 255.07 31.8623V24.9283ZM239.594 64.9675C248.409 64.9675 255.07 58.4247 255.07 49.3422C255.07 40.2597 248.409 33.7168 239.594 33.7168C230.779 33.7168 224.118 40.2597 224.118 49.3422C224.118 58.4247 230.779 64.9675 239.594 64.9675ZM283.279 17.6033C279.556 17.6033 276.521 14.4795 276.521 10.8662C276.524 9.08015 277.237 7.36824 278.504 6.1053C279.771 4.84236 281.488 4.13131 283.279 4.12784C285.07 4.13131 286.787 4.84236 288.054 6.1053C289.321 7.36824 290.034 9.08015 290.037 10.8662C290.037 14.4795 287 17.6033 283.279 17.6033ZM277.99 73.756V24.9283H288.567V73.756H277.99ZM300.811 73.756V2.46753H311.39V73.756H300.811ZM380.051 24.9283H391.216L375.838 73.756H365.456L355.269 40.8463L344.986 73.756H334.603L319.225 24.9283H330.391L339.892 58.6202L350.176 24.9283H360.265L370.451 58.6202L380.051 24.9283ZM404.341 17.6046C400.619 17.6046 397.583 14.4795 397.583 10.8662C397.586 9.08015 398.299 7.36824 399.566 6.1053C400.833 4.84236 402.55 4.13131 404.341 4.12784C406.132 4.13131 407.849 4.84236 409.116 6.1053C410.383 7.36824 411.096 9.08015 411.099 10.8662C411.099 14.4795 408.062 17.6033 404.341 17.6033M399.052 73.7546V24.9283H409.63V73.756L399.052 73.7546ZM447.634 23.6565C458.603 23.6565 466.44 31.0787 466.44 43.7745V73.7546H455.861V44.8495C455.861 37.4286 451.551 33.5226 444.892 33.5226C437.937 33.5226 432.451 37.6228 432.451 47.5847V73.756H421.873V24.9283H432.451V31.1785C435.685 26.0991 440.973 23.6565 447.634 23.6565ZM516.588 5.39703H527.167V73.756H516.588V66.7249C512.867 71.9014 507.088 75.0265 499.449 75.0265C486.127 75.0265 475.058 63.7954 475.058 49.3422C475.058 34.7918 486.127 23.6592 499.447 23.6592C507.088 23.6592 512.867 26.7829 516.588 31.8623V5.39703ZM501.113 64.9675C509.927 64.9675 516.588 58.4247 516.588 49.3422C516.588 40.2597 509.927 33.7168 501.113 33.7168C492.298 33.7168 485.637 40.2597 485.637 49.3422C485.637 58.4247 492.298 64.9675 501.113 64.9675ZM562.623 75.0265C547.833 75.0265 536.765 63.7954 536.765 49.3422C536.765 34.7918 547.833 23.6592 562.623 23.6592C572.222 23.6592 580.547 28.6388 584.466 36.2565L575.357 41.5302C573.202 36.9403 568.402 34.0095 562.526 34.0095C553.906 34.0095 547.344 40.5536 547.344 49.3422C547.344 58.1306 553.906 64.6748 562.526 64.6748C568.402 64.6748 573.202 61.6468 575.553 57.1541L584.662 62.3307C580.547 70.0455 572.222 75.0265 562.623 75.0265ZM602.095 38.4051C602.095 47.2907 628.443 41.92 628.443 59.9865C628.443 69.7515 619.922 75.0265 609.344 75.0265C599.549 75.0265 592.498 70.6309 589.363 63.5998L598.473 58.3262C600.039 62.7218 603.957 65.3573 609.344 65.3573C614.046 65.3573 617.67 63.7954 617.67 59.8894C617.67 51.198 591.322 56.0805 591.322 38.6007C591.322 29.4197 599.256 23.6592 609.246 23.6592C617.278 23.6592 623.937 27.3696 627.367 33.8153L618.454 38.7949C616.69 34.9873 613.263 33.2299 609.246 33.2299C605.426 33.2299 602.095 34.8889 602.095 38.4051ZM647.249 38.4051C647.249 47.2907 673.597 41.92 673.597 59.9865C673.597 69.7515 665.076 75.0265 654.498 75.0265C644.704 75.0265 637.65 70.6309 634.516 63.5998L643.625 58.3262C645.192 62.7218 649.111 65.3573 654.498 65.3573C659.199 65.3573 662.823 63.7954 662.823 59.8894C662.823 51.198 636.476 56.0805 636.476 38.6007C636.476 29.4197 644.409 23.6592 654.4 23.6592C662.43 23.6592 669.091 27.3696 672.521 33.8153L663.607 38.7949C661.843 34.9873 658.415 33.2299 654.4 33.2299C650.58 33.2299 647.249 34.8889 647.249 38.4051Z" fill="#2D3748"/>
</g>
<defs>
<linearGradient id="paint0_linear_288_32" x1="-386.663" y1="2664.44" x2="11616.5" y2="9605.95" gradientUnits="userSpaceOnUse">
<stop stop-color="#2298BD"/>
<stop offset="1" stop-color="#0ED7B5"/>
</linearGradient>
<clipPath id="clip0_288_32">
<rect width="674" height="84" fill="white"/>
</clipPath>
</defs>
</svg>
