<svg width="80" height="80" viewBox="0 0 80 80" fill="none" xmlns="http://www.w3.org/2000/svg">
<g clip-path="url(#clip0_288_9)">
<path d="M61.25 0H18.75C8.39466 0 0 8.39466 0 18.75V61.25C0 71.6053 8.39466 80 18.75 80H61.25C71.6053 80 80 71.6053 80 61.25V18.75C80 8.39466 71.6053 0 61.25 0Z" fill="#007ACC"/>
<path d="M17.6913 40.2653L17.666 43.5415H28.0785V73.1287H35.4438V43.5415H45.8563V40.3287C45.8563 38.5509 45.8185 37.0653 45.7676 37.0271C45.7295 36.9765 39.3929 36.9509 31.7104 36.9637L17.7295 37.0018L17.6913 40.2653ZM64.5526 36.9087C66.5841 37.4168 68.1335 38.3184 69.5557 39.7912C70.2923 40.5787 71.3841 42.0137 71.4732 42.3565C71.4985 42.4581 68.0191 44.7947 65.9113 46.1025C65.8351 46.1534 65.5301 45.8231 65.1873 45.3153C64.1588 43.8168 63.0795 43.169 61.4285 43.055C59.0032 42.8897 57.4413 44.1597 57.4541 46.2803C57.4541 46.9025 57.5429 47.2706 57.797 47.7787C58.3301 48.8834 59.3207 49.5437 62.432 50.8897C68.1588 53.3534 70.6095 54.9787 72.1335 57.2896C73.8351 59.8675 74.216 63.9818 73.0604 67.0422C71.7907 70.369 68.6413 72.6293 64.2094 73.3787C62.8382 73.62 59.5873 73.5818 58.1145 73.3153C54.9016 72.7437 51.8541 71.1565 49.9748 69.074C49.2382 68.2612 47.8032 66.1406 47.8923 65.9881C47.9301 65.9375 48.2604 65.7343 48.6285 65.5184C48.9841 65.3153 50.3304 64.5406 51.6001 63.804L53.8985 62.4706L54.381 63.1818C55.0541 64.2103 56.527 65.62 57.416 66.0896C59.9682 67.4359 63.4732 67.2453 65.2001 65.6962C65.9366 65.0231 66.2413 64.3246 66.2413 63.2962C66.2413 62.369 66.127 61.9628 65.6445 61.2643C65.0223 60.3756 63.7526 59.6262 60.146 58.0643C56.0191 56.2865 54.2413 55.1818 52.616 53.4293C51.6763 52.4137 50.7873 50.7881 50.4191 49.4293C50.1145 48.2993 50.0382 45.4675 50.2795 44.3247C51.1301 40.3375 54.1398 37.5565 58.4826 36.7309C59.8923 36.4643 63.1682 36.5659 64.5526 36.9087Z" fill="white"/>
</g>
<defs>
<clipPath id="clip0_288_9">
<rect width="80" height="80" fill="white"/>
</clipPath>
</defs>
</svg>
